<?xml version="1.0" encoding="utf-8"?>
<!-- Generator: Adobe Illustrator 19.0.0, SVG Export Plug-In . SVG Version: 6.00 Build 0)  -->
<svg version="1.1" id="Capa_1" xmlns="http://www.w3.org/2000/svg" xmlns:xlink="http://www.w3.org/1999/xlink" x="0px" y="0px"
	 viewBox="0 0 54 293.7" style="enable-background:new 0 0 54 293.7;" xml:space="preserve">
<style type="text/css">
	.st0{fill:#FFFFFF;}
	.st1{fill:#001F31;}
</style>
<path id="arrow_x5F_left_2_" class="st0" d="M5,14.8L5,14.8c-0.9,0.8-0.9,2.2,0,3.1l18.2,17.9c1.7,1.7,4.5,1.7,6.2,0l18.3-18
	c0.8-0.8,0.9-2.2,0-3l0,0c-0.9-0.9-2.3-0.9-3.1,0L27.8,31.2c-0.9,0.8-2.2,0.8-3.1,0L8.1,14.8C7.2,14,5.9,14,5,14.8z"/>
<path id="arrow_x5F_left_1_" class="st1" d="M48.7,98.4L48.7,98.4c0.9-0.9,0.9-2.2,0-3.1L30.5,77.2c-1.7-1.7-4.5-1.7-6.2,0L6,95.5
	c-0.8,0.8-0.9,2.2,0,3.1l0,0c0.9,0.9,2.3,0.9,3.1,0l16.7-16.7c0.9-0.9,2.2-0.9,3.1,0l16.6,16.6C46.4,99.3,47.8,99.3,48.7,98.4z"/>
<path id="arrow_x5F_left_3_" class="st1" d="M16.4,152.2L16.4,152.2c0.9-0.9,2.2-0.9,3.1,0l18.2,18.2c1.7,1.7,1.7,4.5,0,6.2
	l-18.3,18.3c-0.8,0.8-2.2,0.9-3.1,0l0,0c-0.9-0.9-0.9-2.3,0-3.1l16.7-16.7c0.9-0.9,0.9-2.2,0-3.1l-16.6-16.6
	C15.6,154.5,15.6,153.1,16.4,152.2z"/>
<path id="arrow_x5F_left_4_" class="st0" d="M16.4,233L16.4,233c0.9-0.9,2.2-0.9,3.1,0l18.2,18.2c1.7,1.7,1.7,4.5,0,6.2l-18.3,18.3
	c-0.8,0.8-2.2,0.9-3.1,0l0,0c-0.9-0.9-0.9-2.3,0-3.1l16.7-16.7c0.9-0.9,0.9-2.2,0-3.1l-16.6-16.6C15.6,235.3,15.6,233.9,16.4,233z"
	/>
</svg>
