<?xml version="1.0" encoding="utf-8"?>
<!-- Generator: Adobe Illustrator 19.0.0, SVG Export Plug-In . SVG Version: 6.00 Build 0)  -->
<svg version="1.1" id="Capa_1" xmlns="http://www.w3.org/2000/svg" xmlns:xlink="http://www.w3.org/1999/xlink" x="0px" y="0px"
	 viewBox="0 0 43.7 44.3" style="enable-background:new 0 0 43.7 44.3;" xml:space="preserve">
<style type="text/css">
	.st0{fill:#001F31;}
</style>
<path id="arrow_x5F_down_10_" class="st0" d="M19.6,41.9c0.8,0.8,2.1,0.8,2.9,0l0,0c0.8-0.8,0.8-2.1,0-2.9L9.4,26
	c-0.6-0.6-0.2-1.7,0.7-1.7h30.1c1.1,0,1.1-1.1,1.1-2.2v0c0-1.1,0-1.8-1.1-1.8H10.1c-0.9,0-1.4-1.2-0.7-1.8L22.5,5.3
	c0.8-0.8,0.9-2.1-0.1-2.9v0c-0.7-0.7-2-0.8-2.8,0l-16.9,17h0.1c-1.6,2-1.6,4.1,0,5.7C3.1,25.4,20,42.3,19.6,41.9z"/>
</svg>
