<?xml version="1.0" encoding="utf-8"?>
<!-- Generator: Adobe Illustrator 17.0.0, SVG Export Plug-In . SVG Version: 6.00 Build 0)  -->
<!DOCTYPE svg PUBLIC "-//W3C//DTD SVG 1.1//EN" "http://www.w3.org/Graphics/SVG/1.1/DTD/svg11.dtd">
<svg version="1.1" id="Capa_1" xmlns="http://www.w3.org/2000/svg" xmlns:xlink="http://www.w3.org/1999/xlink" x="0px" y="0px"
	 width="82.496px" height="652.741px" viewBox="0 0 82.496 652.741" enable-background="new 0 0 82.496 652.741"
	 xml:space="preserve">
<path fill="#FFFFFF" d="M62.78,477.241H52.31c-2.818,0-5.124,2.238-5.231,5.032c-6.655-1.058-11.708-6.128-12.85-12.891
	c2.775-0.125,4.994-2.421,4.994-5.229v-10.47c0-2.887-2.348-5.235-5.235-5.235h-10.47c-2.887,0-5.235,2.348-5.235,5.235v13.088
	c0,17.32,14.092,31.411,31.411,31.411H62.78c2.887,0,5.235-2.349,5.235-5.235v-10.47C68.015,479.589,65.667,477.241,62.78,477.241z
	 M49.692,492.947c-14.434,0-26.176-11.741-26.176-26.176v-13.088h10.47v10.47h-2.618c-0.702,0-1.374,0.281-1.866,0.781
	c-0.492,0.501-0.762,1.176-0.752,1.879c0.189,11.914,9.192,20.899,20.941,20.899c1.445,0,2.618-1.172,2.618-2.618v-2.618h10.47
	l0.004,10.47H49.692V492.947z"/>
<g>
	<path fill="#FFFFFF" d="M41.973,643.767c-0.075,0-0.151-0.005-0.228-0.016c-0.726-0.101-1.296-0.671-1.397-1.397l-3.197-22.771
		l-22.771-3.196c-0.726-0.101-1.296-0.671-1.397-1.397c-0.103-0.726,0.29-1.429,0.958-1.727l49.222-21.857
		c0.62-0.272,1.346-0.141,1.827,0.34c0.481,0.479,0.615,1.205,0.34,1.827l-21.857,49.222
		C43.207,643.39,42.616,643.767,41.973,643.767z M20.516,613.933l18.317,2.572c0.726,0.101,1.296,0.671,1.397,1.397l2.572,18.317
		l17.8-40.086L20.516,613.933z"/>
</g>
<g>
	<path fill="#FFFFFF" d="M59.773,358.43c-0.348,0-0.698-0.093-1.011-0.278l-17.343-10.304l-17.351,10.304
		c-0.687,0.408-1.543,0.363-2.185-0.106c-0.64-0.472-0.938-1.282-0.752-2.056l4.614-19.321L10.433,323.69
		c-0.611-0.517-0.851-1.353-0.605-2.116c0.244-0.762,0.924-1.302,1.723-1.368l20.195-1.666l7.853-18.317
		c0.311-0.728,1.027-1.2,1.82-1.2l0,0c0.793,0,1.508,0.473,1.82,1.201l7.847,18.316l20.197,1.666
		c0.799,0.066,1.479,0.606,1.723,1.369c0.246,0.762,0.006,1.597-0.605,2.115l-15.316,12.979l4.614,19.321
		c0.186,0.774-0.112,1.584-0.752,2.056C60.599,358.3,60.187,358.43,59.773,358.43z M16.64,323.76l12.593,10.675
		c0.57,0.482,0.82,1.243,0.646,1.971l-3.81,15.952l14.337-8.515c0.623-0.371,1.4-0.371,2.023,0l14.33,8.513l-3.81-15.95
		c-0.174-0.727,0.076-1.489,0.646-1.971l12.597-10.675l-16.621-1.371c-0.731-0.06-1.369-0.519-1.657-1.194l-6.496-15.165
		l-6.504,15.166c-0.288,0.674-0.926,1.133-1.657,1.193L16.64,323.76z"/>
</g>
<g>
	<g>
		<path fill="#FFFFFF" d="M57.422,218.908h-25.14c-1.44,0-2.799-0.619-3.727-1.698l-10.922-11.986
			c-0.989-0.957-1.584-2.354-1.584-3.845s0.595-2.888,1.674-3.936l0.286-0.276c2.184-2.123,5.74-2.121,7.928,0.006l2.314,2.246
			v-25.664c0-3.053,2.529-5.535,5.639-5.535h0.398c3.11,0,5.641,2.482,5.641,5.535v9.273c0.459-0.118,0.94-0.179,1.436-0.179h0.398
			c2.582,0,4.761,1.71,5.429,4.038c0.522-0.154,1.075-0.238,1.647-0.238h0.398c2.541,0,4.696,1.66,5.397,3.932
			c0.532-0.16,1.097-0.246,1.68-0.246h0.398c3.11,0,5.639,2.482,5.639,5.535v18.161c0,0.179-0.022,0.351-0.065,0.518
			C62.029,217.019,59.945,218.908,57.422,218.908z M21.969,199.734c-0.39,0-0.778,0.14-1.066,0.421l-0.288,0.278
			c-0.26,0.252-0.406,0.591-0.406,0.947s0.146,0.695,0.41,0.951l11.05,12.122c0.177,0.205,0.386,0.297,0.613,0.297h25.14
			c0.402,0,0.729-0.29,0.729-0.648c0-0.136,0.014-0.272,0.039-0.404V195.87c0-0.758-0.664-1.375-1.479-1.375h-0.398
			c-0.727,0-1.357,0.506-1.465,1.174c-0.169,1.072-1.109,1.824-2.218,1.747c-1.081-0.085-1.915-0.989-1.915-2.074v-3.157
			c0-0.76-0.664-1.377-1.479-1.377h-0.398c-0.727,0-1.357,0.506-1.465,1.174c-0.169,1.072-1.113,1.83-2.218,1.747
			c-1.081-0.085-1.916-0.989-1.916-2.074v-3.272c0-0.758-0.664-1.375-1.479-1.375h-0.398c-0.727,0-1.357,0.504-1.462,1.17
			c-0.169,1.072-1.139,1.836-2.216,1.749c-1.083-0.085-1.917-0.989-1.917-2.074v-14.099c0-0.758-0.664-1.375-1.481-1.375h-0.398
			c-0.814,0-1.479,0.617-1.479,1.375v30.582c0,0.835-0.5,1.59-1.269,1.915c-0.772,0.325-1.66,0.158-2.259-0.423l-5.844-5.673
			C22.747,199.874,22.357,199.734,21.969,199.734z M60.27,214.031h0.02H60.27z"/>
	</g>
	<g>
		<path fill="#FFFFFF" d="M21.472,173.677h-6.961c-1.15,0-2.08-0.93-2.08-2.08c0-1.15,0.93-2.08,2.08-2.08h6.961
			c1.15,0,2.08,0.93,2.08,2.08C23.552,172.747,22.621,173.677,21.472,173.677z"/>
	</g>
	<g>
		<path fill="#FFFFFF" d="M34.161,163.267c-1.15,0-2.08-0.93-2.08-2.08v-6.758c0-1.15,0.93-2.08,2.08-2.08s2.08,0.93,2.08,2.08
			v6.758C36.241,162.337,35.31,163.267,34.161,163.267z"/>
	</g>
	<g>
		<path fill="#FFFFFF" d="M26.41,166.814c-0.522,0-1.044-0.195-1.448-0.587l-4.922-4.777c-0.825-0.8-0.845-2.117-0.045-2.941
			c0.8-0.825,2.116-0.845,2.941-0.045l4.922,4.777c0.825,0.8,0.845,2.117,0.045,2.941C27.494,166.603,26.952,166.814,26.41,166.814z
			"/>
	</g>
	<g>
		<path fill="#FFFFFF" d="M53.636,173.677h-6.961c-1.15,0-2.08-0.93-2.08-2.08c0-1.15,0.93-2.08,2.08-2.08h6.961
			c1.15,0,2.08,0.93,2.08,2.08C55.716,172.747,54.786,173.677,53.636,173.677z"/>
	</g>
	<g>
		<path fill="#FFFFFF" d="M41.737,166.814c-0.542,0-1.085-0.211-1.493-0.632c-0.8-0.825-0.78-2.141,0.045-2.941l4.922-4.777
			c0.825-0.8,2.143-0.778,2.939,0.043c0.8,0.825,0.782,2.141-0.041,2.941l-4.924,4.78C42.781,166.619,42.259,166.814,41.737,166.814
			z"/>
	</g>
</g>
<path fill="#FFFFFF" d="M69.503,35.82L39.818,14.231c-0.694-0.506-1.635-0.506-2.329,0L7.805,35.82
	c-0.883,0.642-1.079,1.88-0.436,2.764c0.643,0.885,1.877,1.076,2.764,0.437l3.907-2.841v27.147c0,1.094,0.886,1.979,1.979,1.979H32
	c1.093,0,1.979-0.885,1.979-1.979V44.739h9.35v18.588c0,1.094,0.886,1.979,1.979,1.979h15.98c1.093,0,1.979-0.885,1.979-1.979
	V36.179l3.907,2.841c0.352,0.255,0.76,0.379,1.163,0.379c0.612,0,1.216-0.282,1.602-0.816C70.582,37.701,70.386,36.462,69.503,35.82
	z M59.31,61.348H47.287V42.76c0-1.094-0.886-1.979-1.979-1.979H32c-1.093,0-1.979,0.885-1.979,1.979v18.588H17.999V33.301
	l20.655-15.023L59.31,33.301V61.348z"/>
</svg>
