<?xml version="1.0" encoding="utf-8"?>
<!-- Generator: Adobe Illustrator 16.0.0, SVG Export Plug-In . SVG Version: 6.00 Build 0)  -->
<!DOCTYPE svg PUBLIC "-//W3C//DTD SVG 1.1//EN" "http://www.w3.org/Graphics/SVG/1.1/DTD/svg11.dtd">
<svg version="1.1" id="Capa_1" xmlns="http://www.w3.org/2000/svg" xmlns:xlink="http://www.w3.org/1999/xlink" x="0px" y="0px"
	 width="35.232px" height="141.73px" viewBox="110.712 0 35.232 141.73" enable-background="new 110.712 0 35.232 141.73"
	 xml:space="preserve">
<g>
	<path fill-rule="evenodd" clip-rule="evenodd" fill="#0D2234" d="M145.045,130.164c-1.375,0-2.752,0.029-4.119-0.011
		c-0.205-0.011-0.467-0.214-0.627-0.388c-1.558-1.67-3.881-1.684-5.506-0.066c-0.24,0.24-0.65,0.443-0.998,0.454
		c-4.154,0.022-8.304,0-12.467,0.022c-0.482,0-0.816-0.129-1.159-0.488c-1.472-1.58-3.837-1.592-5.302-0.033
		c-0.359,0.387-0.711,0.545-1.225,0.521c-0.627-0.033-1.26-0.012-2.109-0.012c0.098-1.482,0.109-2.918,0.311-4.337
		c0.102-0.749,0.793-1.16,1.533-1.138c0.914,0.033,1.633-0.356,2.357-0.789c3.089-1.848,6.438-2.617,10.012-2.629
		c2.744-0.002,5.279,0.795,7.695,2.014c2.123,1.059,4.266,2.018,6.558,2.75c1.539,0.488,2.929,1.43,4.364,2.221
		C145.045,128.644,145.257,129.31,145.045,130.164z M124.811,122.539c-3.049,0.092-5.85,0.842-8.633,2.586
		c0.73,0.422,1.271,0.98,1.852,1.014c2.225,0.107,4.481,0.045,6.781,0.045C124.811,124.957,124.811,123.783,124.811,122.539z
		 M126.16,126.217c2.685,0,5.345,0,7.983,0c0.133,0,0.275,0.023,0.389-0.027c0.204-0.096,0.379-0.247,0.556-0.373
		c-0.129-0.178-0.21-0.434-0.379-0.509c-1.699-0.753-3.364-1.567-5.104-2.193c-1.075-0.382-2.249-0.472-3.445-0.71
		C126.16,123.783,126.16,124.963,126.16,126.217z"/>
	<path fill-rule="evenodd" clip-rule="evenodd" fill="#0D2234" d="M133.713,133.496c-4.184,0-8.293,0-12.491,0
		c0-0.697,0-1.399,0-2.18c4.099,0,8.276,0,12.491,0C133.713,132.029,133.713,132.754,133.713,133.496z"/>
	<path fill-rule="evenodd" clip-rule="evenodd" fill="#0D2234" d="M114.942,132.192c-0.145-1.668,1.486-2.673,2.657-2.617
		c1.519,0.067,2.57,1.286,2.517,2.966c-0.033,1.19-1.354,2.303-2.705,2.269C115.97,134.771,114.912,133.641,114.942,132.192z
		 M117.532,133.726c0.723-0.012,1.441-0.805,1.473-1.607c0.008-0.656-0.773-1.359-1.518-1.354c-0.678,0.006-1.514,0.775-1.502,1.387
		C116.006,132.877,116.835,133.726,117.532,133.726z"/>
	<path fill-rule="evenodd" clip-rule="evenodd" fill="#0D2234" d="M134.958,132.063c-0.021-1.359,1.121-2.466,2.552-2.482
		c1.441-0.006,2.629,1.168,2.644,2.611c0.006,1.421-1.128,2.589-2.544,2.617C136.08,134.844,134.998,133.709,134.958,132.063z
		 M139.01,132.131c0.023-0.612-0.707-1.331-1.423-1.359c-0.751-0.039-1.554,0.611-1.554,1.292c0,0.831,0.672,1.601,1.419,1.612
		C138.292,133.697,138.971,133.023,139.01,132.131z"/>
	<path fill-rule="evenodd" clip-rule="evenodd" fill="#0D2234" d="M141.241,133.4c0-0.674,0-1.337,0-2.084c1.171,0,2.367,0,3.572,0
		C144.583,132.945,143.774,133.427,141.241,133.4z"/>
	<path fill-rule="evenodd" clip-rule="evenodd" fill="#0D2234" d="M113.762,132.676c-1.926-0.849-1.926-0.849-2.1-1.387
		c0.732,0,1.463,0,2.17,0C113.808,131.754,113.78,132.187,113.762,132.676z"/>
</g>
<g>
	<g>
		<g>
			<rect x="111.552" y="13.467" fill="#0D2234" width="31.729" height="1"/>
		</g>
		<g>
			<polygon fill="#0D2234" points="135.24,21.383 134.593,20.621 142.728,13.707 134.648,8.565 135.185,7.721 144.409,13.592 			"/>
		</g>
	</g>
	<g>
		<g>
			<rect x="111.837" y="26.61" fill="#0D2234" width="31.443" height="1"/>
		</g>
		<g>
			<polygon fill="#0D2234" points="119.86,33.302 110.712,27.489 119.804,19.754 120.453,20.516 112.393,27.371 120.396,32.458 			
				"/>
		</g>
	</g>
</g>
<g>
	<path fill="#0D2234" d="M125.993,65.829h-7.998c-0.762,0-1.383,0.621-1.383,1.383v7.999c0,0.762,0.621,1.382,1.383,1.382h7.998
		c0.762,0,1.382-0.62,1.382-1.382v-7.999C127.375,66.45,126.755,65.829,125.993,65.829L125.993,65.829z M126.546,75.211
		c0,0.305-0.248,0.553-0.554,0.553h-7.998c-0.306,0-0.554-0.248-0.554-0.553v-7.999c0-0.306,0.248-0.554,0.554-0.554h7.998
		c0.306,0,0.554,0.248,0.554,0.554V75.211z M126.546,75.211"/>
	<path fill="#0D2234" d="M138.412,65.829h-7.999c-0.762,0-1.382,0.621-1.382,1.383v7.999c0,0.762,0.62,1.382,1.382,1.382h7.999
		c0.762,0,1.382-0.62,1.382-1.382v-7.999C139.793,66.45,139.173,65.829,138.412,65.829L138.412,65.829z M138.964,75.211
		c0,0.305-0.248,0.553-0.553,0.553h-7.999c-0.306,0-0.554-0.248-0.554-0.553v-7.999c0-0.306,0.248-0.554,0.554-0.554h7.999
		c0.305,0,0.553,0.248,0.553,0.554V75.211z M138.964,75.211"/>
	<path fill="#0D2234" d="M125.993,78.248h-7.998c-0.762,0-1.383,0.621-1.383,1.383v7.998c0,0.762,0.621,1.383,1.383,1.383h7.998
		c0.762,0,1.382-0.621,1.382-1.383v-7.998C127.375,78.869,126.755,78.248,125.993,78.248L125.993,78.248z M126.546,87.629
		c0,0.306-0.248,0.554-0.554,0.554h-7.998c-0.306,0-0.554-0.248-0.554-0.554v-7.998c0-0.306,0.248-0.554,0.554-0.554h7.998
		c0.306,0,0.554,0.248,0.554,0.554V87.629z M126.546,87.629"/>
	<path fill="#0D2234" d="M139.379,83.217h-4.555v-4.554c0-0.229-0.183-0.415-0.414-0.415c-0.229,0-0.412,0.187-0.412,0.415v4.554
		h-4.554c-0.229,0-0.414,0.184-0.414,0.412c0,0.23,0.186,0.414,0.414,0.414h4.554v4.554c0,0.229,0.184,0.415,0.412,0.415
		c0.231,0,0.414-0.187,0.414-0.415v-4.554h4.555c0.228,0,0.414-0.184,0.414-0.414C139.793,83.4,139.607,83.217,139.379,83.217
		L139.379,83.217z M139.379,83.217"/>
</g>
</svg>
