<?xml version="1.0" encoding="utf-8"?>
<!-- Generator: Adobe Illustrator 21.0.0, SVG Export Plug-In . SVG Version: 6.00 Build 0)  -->
<svg version="1.1" id="Capa_1" xmlns="http://www.w3.org/2000/svg" xmlns:xlink="http://www.w3.org/1999/xlink" x="0px" y="0px"
	 viewBox="0 0 82.5 527" style="enable-background:new 0 0 82.5 527;" xml:space="preserve">
<style type="text/css">
	.st0{fill:#C1151D;}
</style>
<path id="arrow_x5F_right_x5F_left_1_" class="st0" d="M27.9,58.6L20.1,52h52.7v-5H20.1l7.8-6.3l-4.7-3.4L8.1,49.8L23.2,62
	L27.9,58.6z M57.9,41.8L73,29.4L57.9,17.1l-4.7,3.4l7.8,6.5H8.1v5H61l-7.8,6.4L57.9,41.8z"/>
<path id="grid_x5F_system" class="st0" d="M18.5,184.8h21v-21h-21V184.8z M23.1,168.5h11.7v11.7H23.1V168.5z M44.1,163.8v21h21v-21
	H44.1z M60.4,180.1H48.8v-11.7h11.7V180.1z M18.5,210.4h21v-21h-21V210.4z M23.1,194.1h11.7v11.7H23.1V194.1z M44.1,210.4h21v-21
	h-21V210.4z M48.8,194.1h11.7v11.7H48.8V194.1z"/>
<path id="list" class="st0" d="M72.9,331.6H37.2v-6h35.7V331.6z M72.9,304.9H37.2v5.9h35.7V304.9z M72.9,346.5H37.2v5.9h35.7V346.5z
	 M22.3,325.7c-1.6,0-3,1.3-3,3s1.3,3,3,3c1.6,0,3-1.3,3-3S24,325.7,22.3,325.7 M22.3,319.7c4.9,0,8.9,4,8.9,8.9c0,4.9-4,8.9-8.9,8.9
	s-8.9-4-8.9-8.9C13.4,323.7,17.4,319.7,22.3,319.7L22.3,319.7z M22.3,304.9c-1.6,0-3,1.3-3,3c0,1.6,1.3,3,3,3c1.6,0,3-1.3,3-3
	C25.3,306.2,24,304.9,22.3,304.9 M22.3,298.9c4.9,0,8.9,4,8.9,8.9c0,4.9-4,8.9-8.9,8.9s-8.9-4-8.9-8.9
	C13.4,302.9,17.4,298.9,22.3,298.9L22.3,298.9z M22.3,346.5c-1.6,0-3,1.3-3,3c0,1.6,1.3,3,3,3c1.6,0,3-1.3,3-3
	C25.3,347.8,24,346.5,22.3,346.5 M22.3,340.5c4.9,0,8.9,4,8.9,8.9c0,4.9-4,8.9-8.9,8.9s-8.9-4-8.9-8.9
	C13.4,344.5,17.4,340.5,22.3,340.5L22.3,340.5z"/>
<path id="news_x5F_grid" class="st0" d="M22.6,450.8c0,19.4,0,27.7,0,47.3c83.7,0,24.1,0,47.3,0c0-15.8,0-31.5,0-47.3
	C60,450.8,82,450.8,22.6,450.8z M51,493.4H27.3v-9.5H51V493.4z M51,479.2H27.3v-9.5H51V479.2z M51,465H27.3v-9.5H51V465z
	 M65.1,493.4h-9.5c0-18,0-19.6,0-37.8h9.5V493.4z"/>
</svg>
