<?xml version="1.0" encoding="utf-8"?>
<!-- Generator: Adobe Illustrator 21.0.0, SVG Export Plug-In . SVG Version: 6.00 Build 0)  -->
<svg version="1.1" id="Capa_1" xmlns="http://www.w3.org/2000/svg" xmlns:xlink="http://www.w3.org/1999/xlink" x="0px" y="0px"
	 viewBox="0 0 82.5 800" style="enable-background:new 0 0 82.5 800;" xml:space="preserve">
<style type="text/css">
	.st0{fill:#FFFFFF;}
</style>
<path class="st0" d="M62.8,477.2H52.3c-2.8,0-5.1,2.2-5.2,5c-6.7-1.1-11.7-6.1-12.8-12.9c2.8-0.1,5-2.4,5-5.2v-10.5
	c0-2.9-2.3-5.2-5.2-5.2H23.5c-2.9,0-5.2,2.3-5.2,5.2v13.1c0,17.3,14.1,31.4,31.4,31.4h13.1c2.9,0,5.2-2.3,5.2-5.2v-10.5
	C68,479.6,65.7,477.2,62.8,477.2z M49.7,492.9c-14.4,0-26.2-11.7-26.2-26.2v-13.1H34v10.5h-2.6c-0.7,0-1.4,0.3-1.9,0.8
	c-0.5,0.5-0.8,1.2-0.8,1.9c0.2,11.9,9.2,20.9,20.9,20.9c1.4,0,2.6-1.2,2.6-2.6v-2.6h10.5l0,10.5L49.7,492.9L49.7,492.9z"/>
<g>
	<path class="st0" d="M42,643.8c-0.1,0-0.2,0-0.2,0c-0.7-0.1-1.3-0.7-1.4-1.4l-3.2-22.8l-22.8-3.2c-0.7-0.1-1.3-0.7-1.4-1.4
		c-0.1-0.7,0.3-1.4,1-1.7l49.2-21.9c0.6-0.3,1.3-0.1,1.8,0.3c0.5,0.5,0.6,1.2,0.3,1.8l-21.9,49.2C43.2,643.4,42.6,643.8,42,643.8z
		 M20.5,613.9l18.3,2.6c0.7,0.1,1.3,0.7,1.4,1.4l2.6,18.3l17.8-40.1L20.5,613.9z"/>
</g>
<g>
	<path class="st0" d="M59.8,358.4c-0.3,0-0.7-0.1-1-0.3l-17.3-10.3l-17.4,10.3c-0.7,0.4-1.5,0.4-2.2-0.1c-0.6-0.5-0.9-1.3-0.8-2.1
		l4.6-19.3l-15.3-13c-0.6-0.5-0.9-1.4-0.6-2.1c0.2-0.8,0.9-1.3,1.7-1.4l20.2-1.7l7.9-18.3c0.3-0.7,1-1.2,1.8-1.2l0,0
		c0.8,0,1.5,0.5,1.8,1.2l7.8,18.3l20.2,1.7c0.8,0.1,1.5,0.6,1.7,1.4c0.2,0.8,0,1.6-0.6,2.1l-15.3,13l4.6,19.3
		c0.2,0.8-0.1,1.6-0.8,2.1C60.6,358.3,60.2,358.4,59.8,358.4z M16.6,323.8l12.6,10.7c0.6,0.5,0.8,1.2,0.6,2l-3.8,16l14.3-8.5
		c0.6-0.4,1.4-0.4,2,0l14.3,8.5l-3.8-16c-0.2-0.7,0.1-1.5,0.6-2l12.6-10.7l-16.6-1.4c-0.7-0.1-1.4-0.5-1.7-1.2L41.4,306l-6.5,15.2
		c-0.3,0.7-0.9,1.1-1.7,1.2L16.6,323.8z"/>
</g>
<g>
	<g>
		<path class="st0" d="M57.4,218.9H32.3c-1.4,0-2.8-0.6-3.7-1.7l-10.9-12c-1-1-1.6-2.4-1.6-3.8s0.6-2.9,1.7-3.9l0.3-0.3
			c2.2-2.1,5.7-2.1,7.9,0l2.3,2.2v-25.7c0-3.1,2.5-5.5,5.6-5.5h0.4c3.1,0,5.6,2.5,5.6,5.5v9.3c0.5-0.1,0.9-0.2,1.4-0.2h0.4
			c2.6,0,4.8,1.7,5.4,4c0.5-0.2,1.1-0.2,1.6-0.2h0.4c2.5,0,4.7,1.7,5.4,3.9c0.5-0.2,1.1-0.2,1.7-0.2h0.4c3.1,0,5.6,2.5,5.6,5.5V214
			c0,0.2,0,0.4-0.1,0.5C62,217,59.9,218.9,57.4,218.9z M22,199.7c-0.4,0-0.8,0.1-1.1,0.4l-0.3,0.3c-0.3,0.3-0.4,0.6-0.4,0.9
			s0.1,0.7,0.4,1l11,12.1c0.2,0.2,0.4,0.3,0.6,0.3h25.1c0.4,0,0.7-0.3,0.7-0.6c0-0.1,0-0.3,0-0.4v-17.8c0-0.8-0.7-1.4-1.5-1.4h-0.4
			c-0.7,0-1.4,0.5-1.5,1.2c-0.2,1.1-1.1,1.8-2.2,1.7c-1.1-0.1-1.9-1-1.9-2.1v-3.2c0-0.8-0.7-1.4-1.5-1.4h-0.4
			c-0.7,0-1.4,0.5-1.5,1.2c-0.2,1.1-1.1,1.8-2.2,1.7c-1.1-0.1-1.9-1-1.9-2.1v-3.3c0-0.8-0.7-1.4-1.5-1.4h-0.4
			c-0.7,0-1.4,0.5-1.5,1.2c-0.2,1.1-1.1,1.8-2.2,1.7c-1.1-0.1-1.9-1-1.9-2.1v-14.1c0-0.8-0.7-1.4-1.5-1.4h-0.4
			c-0.8,0-1.5,0.6-1.5,1.4v30.6c0,0.8-0.5,1.6-1.3,1.9c-0.8,0.3-1.7,0.2-2.3-0.4l-5.8-5.7C22.7,199.9,22.4,199.7,22,199.7z
			 M60.3,214L60.3,214L60.3,214z"/>
	</g>
	<g>
		<path class="st0" d="M21.5,173.7h-7c-1.1,0-2.1-0.9-2.1-2.1c0-1.1,0.9-2.1,2.1-2.1h7c1.1,0,2.1,0.9,2.1,2.1
			C23.6,172.7,22.6,173.7,21.5,173.7z"/>
	</g>
	<g>
		<path class="st0" d="M34.2,163.3c-1.2,0-2.1-0.9-2.1-2.1v-6.8c0-1.1,0.9-2.1,2.1-2.1s2.1,0.9,2.1,2.1v6.8
			C36.2,162.3,35.3,163.3,34.2,163.3z"/>
	</g>
	<g>
		<path class="st0" d="M26.4,166.8c-0.5,0-1-0.2-1.4-0.6l-4.9-4.8c-0.8-0.8-0.8-2.1,0-2.9c0.8-0.8,2.1-0.8,2.9,0l4.9,4.8
			c0.8,0.8,0.8,2.1,0,2.9C27.5,166.6,27,166.8,26.4,166.8z"/>
	</g>
	<g>
		<path class="st0" d="M53.6,173.7h-7c-1.2,0-2.1-0.9-2.1-2.1c0-1.1,0.9-2.1,2.1-2.1h7c1.2,0,2.1,0.9,2.1,2.1
			C55.7,172.7,54.8,173.7,53.6,173.7z"/>
	</g>
	<g>
		<path class="st0" d="M41.7,166.8c-0.5,0-1.1-0.2-1.5-0.6c-0.8-0.8-0.8-2.1,0-2.9l4.9-4.8c0.8-0.8,2.1-0.8,2.9,0
			c0.8,0.8,0.8,2.1,0,2.9l-4.9,4.8C42.8,166.6,42.3,166.8,41.7,166.8z"/>
	</g>
</g>
<path class="st0" d="M69.5,35.8L39.8,14.2c-0.7-0.5-1.6-0.5-2.3,0L7.8,35.8c-0.9,0.6-1.1,1.9-0.4,2.8c0.6,0.9,1.9,1.1,2.8,0.4
	l3.9-2.8v27.1c0,1.1,0.9,2,2,2h16c1.1,0,2-0.9,2-2V44.7h9.4v18.6c0,1.1,0.9,2,2,2h16c1.1,0,2-0.9,2-2V36.2l3.9,2.8
	c0.4,0.3,0.8,0.4,1.2,0.4c0.6,0,1.2-0.3,1.6-0.8C70.6,37.7,70.4,36.5,69.5,35.8z M59.3,61.3h-12V42.8c0-1.1-0.9-2-2-2H32
	c-1.1,0-2,0.9-2,2v18.6H18v-28l20.7-15l20.7,15V61.3z"/>
<g>
	<g>
		<path class="st0" d="M55.7,785.1H24.8V780c0-7.3,6.6-12.9,15.4-12.9c8.8,0,15.4,5.5,15.4,12.9V785.1z M29.9,780h20.6
			c0-4.5-4.3-7.7-10.3-7.7C34.3,772.3,29.9,775.5,29.9,780z"/>
	</g>
	<path class="st0" d="M31.1,763.7c-3.5-4.5-3.3-11.1,0.9-15.3c2.2-2.2,5.1-3.4,8.2-3.4c3.1,0,6,1.2,8.2,3.4
		c4.2,4.2,4.4,10.7,0.9,15.3c1.7,0.7,3.2,1.5,4.5,2.6c4.6-6.5,4-15.6-1.8-21.5c-3.2-3.2-7.4-4.9-11.8-4.9c-4.5,0-8.7,1.7-11.8,4.9
		c-5.8,5.8-6.4,14.9-1.8,21.5C28,765.3,29.5,764.4,31.1,763.7z"/>
	<path class="st0" d="M23.7,769.1c-5.9-8-5.3-19.5,2-26.8c8-8,21.1-8,29.1,0c7.3,7.3,7.9,18.7,2,26.8c1.2,1.4,2.1,3,2.8,4.7
		c8.8-10.1,8.4-25.5-1.2-35.1c-10-10-26.3-10-36.4,0c-9.6,9.6-10,25-1.2,35.1C21.5,772,22.5,770.5,23.7,769.1z"/>
	<g>
		<path class="st0" d="M40.2,764.6c-4.3,0-7.7-3.5-7.7-7.7c0-4.3,3.5-7.7,7.7-7.7s7.7,3.5,7.7,7.7C47.9,761.1,44.5,764.6,40.2,764.6
			z M40.2,754.3c-1.4,0-2.6,1.2-2.6,2.6c0,1.4,1.2,2.6,2.6,2.6c1.4,0,2.6-1.2,2.6-2.6C42.8,755.4,41.6,754.3,40.2,754.3z"/>
	</g>
</g>
</svg>
