<?xml version="1.0" encoding="utf-8"?>
<!-- Generator: Adobe Illustrator 19.0.0, SVG Export Plug-In . SVG Version: 6.00 Build 0)  -->
<svg version="1.1" id="Capa_1" xmlns="http://www.w3.org/2000/svg" xmlns:xlink="http://www.w3.org/1999/xlink" x="0px" y="0px"
	 viewBox="0 0 100 455.8" style="enable-background:new 0 0 100 455.8;" xml:space="preserve">
<style type="text/css">
	.st0{fill:#222220;}
	.st1{fill:none;stroke:#FFFFFF;stroke-miterlimit:10;}
	.st2{fill:none;stroke:#222220;stroke-miterlimit:10;}
	.st3{clip-path:url(#SVGID_2_);}
	.st4{fill:none;stroke:#222220;stroke-width:0.5;stroke-miterlimit:10;}
	.st5{clip-path:url(#SVGID_4_);}
	.st6{fill:#222220;stroke:#222220;stroke-miterlimit:10;}
	.st7{clip-path:url(#SVGID_6_);}
	.st8{clip-path:url(#SVGID_8_);}
	.st9{clip-path:url(#SVGID_10_);}
	.st10{clip-path:url(#SVGID_12_);}
	.st11{fill:none;stroke:#FFFFFF;stroke-width:0.5;stroke-miterlimit:10;}
	.st12{fill:#FFFFFF;}
	.st13{clip-path:url(#SVGID_14_);}
	.st14{fill:none;stroke:#222220;stroke-width:0.75;stroke-miterlimit:10;}
</style>
<g>
	<g>
		<path class="st0" d="M78.4,7.8c0,0,0-1.2,0-1.7c0-0.5-0.2-0.6-0.2-0.6C74.3,4.5,68.5,3.8,62,3.8c-6.1,0-11.7,0.6-15.6,1.6
			c0,0-0.2,0-0.2,0.7s0,1.6,0,1.6"/>
		<path class="st1" d="M62,14.2"/>
		<path class="st0" d="M45.3,10.5c0.2,0.2,0.3,0.1,0.5,0.1c3.9-0.3,9.9-0.5,16.5-0.5c6.8,0,12.9,0.2,16.8,0.4c0.2,0,0.3,0,0.4-0.1
			c0,0,0.1-0.1,0.1-0.3c0-0.5,0-1.2,0-1.6c0-0.6-0.3-0.7-0.3-0.7C75.4,7.5,69.1,7.2,62,7.2c-6.5,0-12.4,0.2-16.3,0.6
			c-0.2,0-0.2,0-0.4,0.1c-0.1,0.1-0.2,0.2-0.2,0.2l0,2C45.1,10.1,45.1,10.3,45.3,10.5z"/>
		<path class="st1" d="M45.1,10.1"/>
		<path class="st1" d="M79.7,10"/>
		<path class="st0" d="M76.8,57.5c-3,4-9.1,5.1-14.8,5.1c-4.6,0-11.3-1.8-14.3-5.1c-0.6-0.6-0.9-1.4-0.9-1.4c-1-2.2,0.2-4.2,0.2-4.2
			C46.7,53,47.3,54,47.3,54c2.1,4.5,8.9,6.4,15,6.4c6.2,0,12.1-1.4,15.2-5.9c0,0,0.4-1.2,0.2-1.5c0,0,0.5,1.9-0.6,3.9L76.8,57.5z"/>
		<path class="st1" d="M62.3,18.7"/>
		<path class="st1" d="M62.3,12.4"/>
		<line class="st2" x1="79.2" y1="10.5" x2="77.7" y2="53"/>
		<line class="st2" x1="45.8" y1="10.5" x2="46.9" y2="52.4"/>
		<g>
			<defs>
				<path id="SVGID_1_" d="M62.2,60.4c6.2,0,12.1-1.4,15.2-5.9l0.2-1.5l1.4-42.4l0-0.1c-3.9-0.3-10-0.4-16.8-0.4 M62.2,10.1
					c-6.7,0-12.6,0.2-16.5,0.5l0,0.1l1.2,41.8l0.4,1.6c2.1,4.5,8.9,6.4,15,6.4"/>
			</defs>
			<clipPath id="SVGID_2_">
				<use xlink:href="#SVGID_1_"  style="overflow:visible;"/>
			</clipPath>
			<g class="st3">
				<line class="st4" x1="64" y1="-6.5" x2="22.2" y2="38.6"/>
				<line class="st4" x1="102.8" y1="29.6" x2="61" y2="74.6"/>
				<line class="st4" x1="101.4" y1="28.3" x2="59.5" y2="73.3"/>
				<line class="st4" x1="100" y1="26.9" x2="58.1" y2="72"/>
				<line class="st4" x1="98.5" y1="25.6" x2="56.7" y2="70.6"/>
				<line class="st4" x1="97.1" y1="24.2" x2="55.2" y2="69.3"/>
				<line class="st4" x1="95.7" y1="22.9" x2="53.8" y2="67.9"/>
				<line class="st4" x1="94.2" y1="21.6" x2="52.3" y2="66.6"/>
				<line class="st4" x1="92.8" y1="20.2" x2="50.9" y2="65.3"/>
				<line class="st4" x1="91.3" y1="18.9" x2="49.5" y2="63.9"/>
				<line class="st4" x1="89.9" y1="17.6" x2="48" y2="62.6"/>
				<line class="st4" x1="88.5" y1="16.2" x2="46.6" y2="61.3"/>
				<line class="st4" x1="87" y1="14.9" x2="45.2" y2="59.9"/>
				<line class="st4" x1="85.6" y1="13.6" x2="43.7" y2="58.6"/>
				<line class="st4" x1="84.2" y1="12.2" x2="42.3" y2="57.3"/>
				<line class="st4" x1="82.7" y1="10.9" x2="40.8" y2="55.9"/>
				<line class="st4" x1="81.3" y1="9.6" x2="39.4" y2="54.6"/>
				<line class="st4" x1="79.8" y1="8.2" x2="38" y2="53.2"/>
				<line class="st4" x1="78.4" y1="6.9" x2="36.5" y2="51.9"/>
				<line class="st4" x1="77" y1="5.5" x2="35.1" y2="50.6"/>
				<line class="st4" x1="75.5" y1="4.2" x2="33.7" y2="49.2"/>
				<line class="st4" x1="74.1" y1="2.9" x2="32.2" y2="47.9"/>
				<line class="st4" x1="72.7" y1="1.5" x2="30.8" y2="46.6"/>
				<line class="st4" x1="71.2" y1="0.2" x2="29.4" y2="45.2"/>
				<line class="st4" x1="69.8" y1="-1.1" x2="27.9" y2="43.9"/>
				<line class="st4" x1="68.4" y1="-2.5" x2="26.5" y2="42.6"/>
				<line class="st4" x1="66.9" y1="-3.8" x2="25" y2="41.2"/>
				<line class="st4" x1="65.5" y1="-5.1" x2="23.6" y2="39.9"/>
			</g>
			<g class="st3">
				<line class="st4" x1="61" y1="-6.5" x2="102.8" y2="38.6"/>
				<line class="st4" x1="22.2" y1="29.6" x2="64" y2="74.6"/>
				<line class="st4" x1="23.6" y1="28.3" x2="65.5" y2="73.3"/>
				<line class="st4" x1="25" y1="26.9" x2="66.9" y2="72"/>
				<line class="st4" x1="26.5" y1="25.6" x2="68.4" y2="70.6"/>
				<line class="st4" x1="27.9" y1="24.2" x2="69.8" y2="69.3"/>
				<line class="st4" x1="29.4" y1="22.9" x2="71.2" y2="67.9"/>
				<line class="st4" x1="30.8" y1="21.6" x2="72.7" y2="66.6"/>
				<line class="st4" x1="32.2" y1="20.2" x2="74.1" y2="65.3"/>
				<line class="st4" x1="33.7" y1="18.9" x2="75.5" y2="63.9"/>
				<line class="st4" x1="35.1" y1="17.6" x2="77" y2="62.6"/>
				<line class="st4" x1="36.5" y1="16.2" x2="78.4" y2="61.3"/>
				<line class="st4" x1="38" y1="14.9" x2="79.8" y2="59.9"/>
				<line class="st4" x1="39.4" y1="13.6" x2="81.3" y2="58.6"/>
				<line class="st4" x1="40.8" y1="12.2" x2="82.7" y2="57.3"/>
				<line class="st4" x1="42.3" y1="10.9" x2="84.2" y2="55.9"/>
				<line class="st4" x1="43.7" y1="9.6" x2="85.6" y2="54.6"/>
				<line class="st4" x1="45.2" y1="8.2" x2="87" y2="53.2"/>
				<line class="st4" x1="46.6" y1="6.9" x2="88.5" y2="51.9"/>
				<line class="st4" x1="48" y1="5.5" x2="89.9" y2="50.6"/>
				<line class="st4" x1="49.5" y1="4.2" x2="91.3" y2="49.2"/>
				<line class="st4" x1="50.9" y1="2.9" x2="92.8" y2="47.9"/>
				<line class="st4" x1="52.3" y1="1.5" x2="94.2" y2="46.6"/>
				<line class="st4" x1="53.8" y1="0.2" x2="95.7" y2="45.2"/>
				<line class="st4" x1="55.2" y1="-1.1" x2="97.1" y2="43.9"/>
				<line class="st4" x1="56.7" y1="-2.5" x2="98.5" y2="42.6"/>
				<line class="st4" x1="58.1" y1="-3.8" x2="100" y2="41.2"/>
				<line class="st4" x1="59.5" y1="-5.1" x2="101.4" y2="39.9"/>
			</g>
		</g>
	</g>
	<g>
		<defs>
			<polygon id="SVGID_3_" points="45.8,21.8 46.4,57.2 37.6,64.6 23.6,63.5 4.1,33.2 			"/>
		</defs>
		<clipPath id="SVGID_4_">
			<use xlink:href="#SVGID_3_"  style="overflow:visible;"/>
		</clipPath>
		<g class="st5">
			<path class="st6" d="M80.4,28.6L36,50.3c0,0-2.7,1.1-3.2,1c-0.5,0-0.8-0.6-0.8-0.6L11.4,36.3c0,0-0.2,0-0.2-0.4
				c0-0.4,0-1.9,0-1.9s-0.2-0.5,0.2-0.7c0.4-0.2,4.9-1.7,4.9-1.7l29.5-8.6l0.5,3.1L16,35.6L33.4,47l42.6-19L80.4,28.6z"/>
			<path class="st2" d="M14.6,34.8c0,0-1.9-1.2-1.7-1.3C13,33.4,44.2,24,44.2,24"/>
			<path class="st2" d="M12.1,34.8c0,0,18.6,12.4,19.5,13.2c0.9,0.7,1.7,1.2,2.9,0.7c1.2-0.4,36.6-17.1,36.6-17.1"/>
			<polyline class="st2" points="14.6,38.5 15.7,47.1 16.1,47.4 34.3,61.6 33.5,51.4 			"/>
			<g>
				<defs>
					<polygon id="SVGID_5_" points="46.3,26 16,35.6 33.4,47 66.2,32.4 					"/>
				</defs>
				<clipPath id="SVGID_6_">
					<use xlink:href="#SVGID_5_"  style="overflow:visible;"/>
				</clipPath>
				<g class="st7">
					<line class="st4" x1="11.9" y1="33.2" x2="49.3" y2="57.6"/>
					<line class="st4" x1="28.4" y1="7.8" x2="65.9" y2="32.3"/>
					<line class="st4" x1="27.5" y1="9.1" x2="65" y2="33.6"/>
					<line class="st4" x1="26.7" y1="10.5" x2="64.1" y2="34.9"/>
					<line class="st4" x1="25.8" y1="11.8" x2="63.3" y2="36.3"/>
					<line class="st4" x1="24.9" y1="13.2" x2="62.4" y2="37.6"/>
					<line class="st4" x1="16.2" y1="26.5" x2="53.7" y2="51"/>
					<line class="st4" x1="15.3" y1="27.8" x2="52.8" y2="52.3"/>
					<line class="st4" x1="14.5" y1="29.2" x2="52" y2="53.6"/>
					<line class="st4" x1="13.6" y1="30.5" x2="51.1" y2="55"/>
					<line class="st4" x1="12.7" y1="31.8" x2="50.2" y2="56.3"/>
					<line class="st4" x1="29.3" y1="6.5" x2="66.8" y2="30.9"/>
					<line class="st4" x1="24" y1="14.5" x2="61.5" y2="38.9"/>
					<line class="st4" x1="23.2" y1="15.8" x2="60.7" y2="40.3"/>
					<line class="st4" x1="22.3" y1="17.2" x2="59.8" y2="41.6"/>
					<line class="st4" x1="21.4" y1="18.5" x2="58.9" y2="43"/>
					<line class="st4" x1="20.6" y1="19.8" x2="58.1" y2="44.3"/>
					<line class="st4" x1="19.7" y1="21.2" x2="57.2" y2="45.6"/>
					<line class="st4" x1="18.8" y1="22.5" x2="56.3" y2="47"/>
					<line class="st4" x1="17.9" y1="23.8" x2="55.4" y2="48.3"/>
					<line class="st4" x1="17.1" y1="25.2" x2="54.6" y2="49.6"/>
				</g>
				<use xlink:href="#SVGID_5_"  style="overflow:visible;fill:none;stroke:#222220;stroke-miterlimit:10;"/>
			</g>
			<g>
				<defs>
					<polygon id="SVGID_7_" points="34.3,60.8 67.2,42.1 66.7,35.3 33.7,50.7 					"/>
				</defs>
				<clipPath id="SVGID_8_">
					<use xlink:href="#SVGID_7_"  style="overflow:visible;"/>
				</clipPath>
				<g class="st8">
					<line class="st4" x1="34.3" y1="16.5" x2="35.4" y2="61.2"/>
					<line class="st4" x1="64.6" y1="15.8" x2="65.6" y2="60.5"/>
					<line class="st4" x1="63" y1="15.8" x2="64" y2="60.6"/>
					<line class="st4" x1="61.4" y1="15.9" x2="62.4" y2="60.6"/>
					<line class="st4" x1="59.8" y1="15.9" x2="60.9" y2="60.6"/>
					<line class="st4" x1="58.2" y1="15.9" x2="59.3" y2="60.7"/>
					<line class="st4" x1="42.3" y1="16.3" x2="43.3" y2="61.1"/>
					<line class="st4" x1="40.7" y1="16.3" x2="41.7" y2="61.1"/>
					<line class="st4" x1="39.1" y1="16.4" x2="40.1" y2="61.1"/>
					<line class="st4" x1="37.5" y1="16.4" x2="38.6" y2="61.2"/>
					<line class="st4" x1="35.9" y1="16.4" x2="37" y2="61.2"/>
					<line class="st4" x1="66.2" y1="15.7" x2="67.2" y2="60.5"/>
					<line class="st4" x1="56.6" y1="16" x2="57.7" y2="60.7"/>
					<line class="st4" x1="55" y1="16" x2="56.1" y2="60.8"/>
					<line class="st4" x1="53.4" y1="16" x2="54.5" y2="60.8"/>
					<line class="st4" x1="51.8" y1="16.1" x2="52.9" y2="60.8"/>
					<line class="st4" x1="50.3" y1="16.1" x2="51.3" y2="60.9"/>
					<line class="st4" x1="48.7" y1="16.2" x2="49.7" y2="60.9"/>
					<line class="st4" x1="47.1" y1="16.2" x2="48.1" y2="60.9"/>
					<line class="st4" x1="45.5" y1="16.2" x2="46.5" y2="61"/>
					<line class="st4" x1="43.9" y1="16.3" x2="44.9" y2="61"/>
				</g>
				<use xlink:href="#SVGID_7_"  style="overflow:visible;fill:none;stroke:#222220;stroke-miterlimit:10;"/>
			</g>
			<polyline class="st2" points="34,51.2 34.6,61.6 67.6,42.3 			"/>
		</g>
	</g>
</g>
<g>
	<g>
		<g>
			<path class="st0" d="M41.5,137.6c6.4-0.8,14.1-1.2,22.4-1.2c7.4,0,14.3,0.4,20.2,1c0,0,0-0.5,0-1.5c0-1-0.6-0.8-0.6-0.8
				c-5.8-0.6-12.5-0.9-19.7-0.9c-8.1,0-15.6,0.4-21.8,1.2c0,0-0.5-0.1-0.5,0.6C41.6,136.5,41.5,137.6,41.5,137.6z"/>
			<path class="st0" d="M46.9,188.2c5.1,2.5,10.9,4,17,4c5.9,0,11.5-1.3,16.5-3.7c0,0-0.3,0.2,0.1-0.1c1.5-0.9,1.9-2.6,1.9-2.6
				c-5.5,2.5-11.8,3.9-18.5,3.9c-6.7,0-13.1-1.4-18.6-3.9c0,0,0.1,1.5,0.9,2C47.1,188.3,46.9,188.2,46.9,188.2z"/>
			<line class="st2" x1="84.1" y1="137.3" x2="82.4" y2="185.8"/>
			<line class="st2" x1="41.5" y1="137.6" x2="45.3" y2="185.8"/>
		</g>
		<g>
			<defs>
				<path id="SVGID_9_" d="M84.1,137.5c-5.9-0.6-12.8-1-20.2-1c-8.3,0-16,0.5-22.4,1.2v0.1l3.8,48v0.1c5.5,2.5,11.9,3.9,18.6,3.9
					c6.7,0,13-1.4,18.5-3.9l0-0.1L84.1,137.5L84.1,137.5z"/>
			</defs>
			<clipPath id="SVGID_10_">
				<use xlink:href="#SVGID_9_"  style="overflow:visible;"/>
			</clipPath>
			<g class="st9">
				<line class="st4" x1="38.5" y1="133.4" x2="38" y2="192.1"/>
				<line class="st4" x1="82.6" y1="133.8" x2="82.1" y2="192.4"/>
				<line class="st4" x1="80.3" y1="133.8" x2="79.8" y2="192.4"/>
				<line class="st4" x1="78" y1="133.8" x2="77.5" y2="192.4"/>
				<line class="st4" x1="75.7" y1="133.8" x2="75.2" y2="192.4"/>
				<line class="st4" x1="73.3" y1="133.7" x2="72.8" y2="192.4"/>
				<line class="st4" x1="50.1" y1="133.5" x2="49.6" y2="192.2"/>
				<line class="st4" x1="47.8" y1="133.5" x2="47.3" y2="192.2"/>
				<line class="st4" x1="45.4" y1="133.5" x2="44.9" y2="192.1"/>
				<line class="st4" x1="43.1" y1="133.5" x2="42.6" y2="192.1"/>
				<line class="st4" x1="40.8" y1="133.5" x2="40.3" y2="192.1"/>
				<line class="st4" x1="85" y1="133.8" x2="84.5" y2="192.5"/>
				<line class="st4" x1="71" y1="133.7" x2="70.5" y2="192.4"/>
				<line class="st4" x1="68.7" y1="133.7" x2="68.2" y2="192.3"/>
				<line class="st4" x1="66.4" y1="133.7" x2="65.9" y2="192.3"/>
				<line class="st4" x1="64" y1="133.7" x2="63.5" y2="192.3"/>
				<line class="st4" x1="61.7" y1="133.6" x2="61.2" y2="192.3"/>
				<line class="st4" x1="59.4" y1="133.6" x2="58.9" y2="192.2"/>
				<line class="st4" x1="57.1" y1="133.6" x2="56.6" y2="192.2"/>
				<line class="st4" x1="54.7" y1="133.6" x2="54.2" y2="192.2"/>
				<line class="st4" x1="52.4" y1="133.6" x2="51.9" y2="192.2"/>
			</g>
		</g>
	</g>
	<g>
		
			<ellipse transform="matrix(0.9401 -0.341 0.341 0.9401 -60.1041 17.4228)" class="st2" cx="19.5" cy="179.7" rx="12.5" ry="18.5"/>
		<ellipse transform="matrix(0.94 -0.341 0.341 0.94 -60.0464 17.5162)" class="st0" cx="19.8" cy="179.5" rx="2.4" ry="3.5"/>
		<path class="st0" d="M28.8,176.5c-2.8-7.7-9.2-12.3-14.4-10.5c-5.2,1.9-7.1,9.6-4.3,17.2c2.8,7.7,9.2,12.3,14.4,10.5
			C29.7,191.9,31.6,184.2,28.8,176.5z M23.8,191.8c-4.4,1.6-9.9-2.4-12.3-9c-2.4-6.6-0.7-13.2,3.7-14.8c4.4-1.6,9.9,2.4,12.3,9
			C29.9,183.6,28.2,190.2,23.8,191.8z"/>
		
			<ellipse transform="matrix(0.9399 -0.3413 0.3413 0.9399 -57.3793 16.5098)" class="st0" cx="18.2" cy="171.3" rx="1.2" ry="1.8"/>
		<ellipse transform="matrix(0.94 -0.3411 0.3411 0.94 -57.8999 18.2938)" class="st0" cx="23.1" cy="173.8" rx="1.2" ry="1.8"/>
		<ellipse transform="matrix(0.94 -0.3412 0.3412 0.94 -59.8177 19.6993)" class="st0" cx="26.1" cy="179.9" rx="1.2" ry="1.8"/>
		<ellipse transform="matrix(0.94 -0.3413 0.3413 0.94 -61.8373 19.6102)" class="st0" cx="24.8" cy="185.6" rx="1.2" ry="1.8"/>
		<ellipse transform="matrix(0.9401 -0.3408 0.3408 0.9401 -62.742 18.4272)" class="st0" cx="21.1" cy="187.8" rx="1.2" ry="1.8"/>
		<ellipse transform="matrix(0.94 -0.3412 0.3412 0.94 -62.1504 16.6886)" class="st0" cx="16.4" cy="185.1" rx="1.2" ry="1.8"/>
		<ellipse transform="matrix(0.94 -0.3411 0.3411 0.94 -60.5401 15.5056)" class="st0" cx="13.8" cy="179.9" rx="1.2" ry="1.8"/>
		<ellipse transform="matrix(0.9401 -0.341 0.341 0.9401 -58.4019 15.3692)" class="st0" cx="14.5" cy="173.8" rx="1.2" ry="1.8"/>
		<line class="st2" x1="15.7" y1="161.7" x2="42.8" y2="158.5"/>
		<line class="st2" x1="25.8" y1="197.1" x2="45" y2="185.9"/>
		<g>
			<path class="st0" d="M9,183.2c0,0-0.1-0.3-0.3-0.9c-0.2-0.6-0.5-1.5-0.7-2.7c-0.2-1.2-0.5-2.7-0.5-4.3c0-1.7,0.1-3.6,0.7-5.6
				c0.3-1,0.7-2,1.4-3c0.3-0.5,0.7-0.9,1-1.4c0.4-0.4,0.8-0.8,1.4-1.1c1-0.6,2.2-1.1,3.5-1.2c1.3-0.1,2.6,0.2,3.8,0.7
				c2.4,1,4.6,2.8,6.3,4.9c1.7,2.1,3.1,4.6,4,7.2c0.9,2.6,1.5,5.4,1.5,8.1c0,2.7-0.4,5.5-1.7,7.8c-0.6,1.1-1.5,2.2-2.5,2.9
				c-1,0.8-2.2,1.2-3.4,1.3c-0.6,0.1-1.2,0-1.8,0c-0.6-0.1-1.1-0.2-1.7-0.4c-1.1-0.3-2-0.9-2.9-1.4c-1.7-1.2-3.1-2.5-4.2-3.9
				c-1-1.3-1.8-2.6-2.4-3.7c-0.6-1.1-1-1.9-1.2-2.6C9.1,183.5,9,183.2,9,183.2z M9,183.2c0,0,0.1,0.3,0.4,0.9
				c0.2,0.6,0.6,1.5,1.2,2.5c0.6,1.1,1.4,2.3,2.4,3.6c1.1,1.3,2.4,2.7,4.2,3.8c0.9,0.5,1.8,1.1,2.9,1.4c0.5,0.2,1.1,0.3,1.7,0.4
				c0.6,0,1.2,0.1,1.7,0c1.2-0.2,2.4-0.6,3.3-1.3c1-0.8,1.8-1.8,2.4-2.9c1.2-2.3,1.7-5,1.6-7.7c-0.1-2.7-0.6-5.4-1.6-8.1
				c-0.9-2.6-2.3-5-4-7.2c-1.7-2.1-3.8-3.9-6.2-4.9c-1.2-0.5-2.5-0.7-3.7-0.7c-1.2,0-2.4,0.5-3.4,1.1c-0.5,0.3-0.9,0.7-1.4,1.1
				c-0.4,0.4-0.8,0.9-1,1.3c-0.6,0.9-1,1.9-1.4,2.9c-0.6,2-0.8,3.9-0.7,5.6c0,1.7,0.3,3.2,0.5,4.3c0.3,1.2,0.5,2.1,0.7,2.7
				C8.9,182.9,9,183.2,9,183.2z"/>
		</g>
	</g>
</g>
<g>
	<g>
		<g>
			<path class="st6" d="M59.4,326.2c0.4,0.5,0.9,0.8,1.6,0.8c1.1,0,2.1-1,2.1-2.3c0-1.2-0.9-2.3-2.1-2.3c-0.2,0-0.3,0-0.5,0.1"/>
			<path class="st6" d="M60.4,322.5l-2.9-0.5l0,0c0.2,0.4,0.3,0.9,0.3,1.5c0,1-0.4,1.9-0.9,2.2l0,0l2.5,0.4"/>
		</g>
		<g>
			<path class="st6" d="M10.8,313.9c-0.4-0.5-0.9-0.8-1.6-0.8c-1.1,0-2.1,1-2.1,2.3s0.9,2.3,2.1,2.3c0.2,0,0.3,0,0.5-0.1"/>
			<path class="st6" d="M9.7,317.6l2.9,0.5l0,0c-0.2-0.4-0.3-0.9-0.3-1.5c0-1,0.4-1.9,0.9-2.2l0,0l-2.5-0.4"/>
		</g>
		<g>
			<path class="st2" d="M57.5,322.1l-3.2-0.5c-0.1,0.7-0.3,1.5-0.4,2.2c-0.1,0.4-0.2,0.9-0.3,1.3l3.4,0.6"/>
			<path class="st2" d="M12.3,317.9l5.1,0.9c0.1-0.7,0.2-1.4,0.4-2.1c0.1-0.4,0.3-1.1,0.4-1.5l-5-0.8"/>
			<path class="st2" d="M51.7,324.8c0.1-0.4,0.2-0.9,0.3-1.3c0.2-0.7,0.3-1.3,0.4-2"/>
			<path class="st2" d="M54.3,321.7c1-5.8,0.3-10.5-1.6-10.9c0,0-0.8-0.4-1.5,0.5"/>
			<path class="st2" d="M18,315.5c1.5-5.6,4.4-9.5,6.7-9l27.2,5.1c1.3,0.3,1.5,4.5,0.5,9.8"/>
			<path class="st2" d="M53.6,325.1c-1.6,6-4.3,10.4-6.3,9.9c0,0-0.7-0.2-0.7-0.9"/>
			<path class="st2" d="M17.4,318.8c-0.8,5.3,0.2,9.6,2.3,10.1l27.2,5.1c1.4,0.3,3.4-3.8,4.8-9.3"/>
		</g>
	</g>
	<g>
		<defs>
			<path id="SVGID_11_" d="M50.1,333.2c0,0,2.8-5.9,3.2-7c0.3-1.1,3.6-0.2,3.6-0.2l3.5,0.9c0,0,2.4,0.2,2.1-1.8
				c-0.3-2-3.2-2.7-3.2-2.7l-4.6-0.9c0,0,0.4-6.5-0.4-8.3c-0.8-1.8-1.3-2.4-2.3-2.4c-1,0-2.4,0.4-2.4,0.4l-17.8-3.4l-2.6-0.5
				l-1.5-9.5l4-29.7l23.9-2.3l15.3,13.6l12,27l-7.3,26.8l-22,1.8L50.1,333.2z"/>
		</defs>
		<clipPath id="SVGID_12_">
			<use xlink:href="#SVGID_11_"  style="overflow:visible;"/>
		</clipPath>
		<g class="st10">
			<path class="st2" d="M31.9,327.3c0,0-0.2-26.1,0-27.7c0.2-1.6,3-3.4,3.2-4.2c0.2-0.8-0.1-9.9,0-11.2c0.1-1.3,4.5-2.5,6.5-2.9
				c2-0.5,3.1-0.3,3.4-1.2c0.2-0.8,0.5-2.2,0.5-2.2"/>
			<path class="st2" d="M67,327.3c0,0,0.2-26.1,0-27.7c-0.2-1.6-3-3.4-3.2-4.2c-0.2-0.8,0.1-9.9,0-11.2c-0.1-1.3-4.5-2.5-6.5-2.9
				c-2-0.5-3.1-0.3-3.4-1.2c-0.2-0.8-0.5-2.2-0.5-2.2"/>
			<g>
				<path class="st2" d="M67,327.1"/>
				<path class="st2" d="M31.9,327.2"/>
				<path class="st2" d="M67,327.1c0,0,0,0.1,0,0.1c0,1.8-7.9,3.3-17.6,3.3c-9.7,0-17.6-1.5-17.6-3.3c0,0,0,0,0-0.1
					c-0.2,0.2-0.3,0.5-0.3,0.8c0,2.5,8,4.5,17.8,4.5c9.8,0,17.8-2,17.8-4.5C67.3,327.6,67.2,327.4,67,327.1z"/>
			</g>
			<path class="st2" d="M56.5,277.2c0,0.5-0.6,0.8-1.3,0.8H43.5c-0.7,0-1.3-0.4-1.3-0.8v-2c0-0.5,0.6-0.8,1.3-0.8h11.7
				c0.7,0,1.3,0.4,1.3,0.8V277.2z"/>
			<path class="st2" d="M43.3,274.4v-2.9c0-0.6,0.1-1.1,0.3-1.1h2.3c0.1,0,0.3,0.5,0.3,1.1v2.9"/>
			<path class="st2" d="M48.4,330.5"/>
			<path class="st2" d="M49.5,330.5"/>
			<g>
				<path class="st0" d="M66.6,300.3c0,0,0,0.2-0.3,0.3c-0.2,0.1-0.6,0.2-1.1,0.3c-0.9,0.2-2.3,0.4-3.9,0.6
					c-1.6,0.1-3.5,0.3-5.5,0.4c-2,0.1-4.2,0.1-6.3,0.1c-2.2,0-4.3-0.1-6.3-0.1c-2-0.1-3.9-0.2-5.5-0.4c-1.6-0.1-3-0.4-3.9-0.6
					c-0.5-0.1-0.8-0.2-1.1-0.3c-0.2-0.1-0.3-0.3-0.3-0.3c0,0,0,0.2,0.3,0.2c0.2,0.1,0.6,0.2,1.1,0.3c0.9,0.2,2.3,0.3,3.9,0.4
					c1.6,0.1,3.5,0.2,5.5,0.2c2,0.1,4.2,0.1,6.3,0.1c2.2,0,4.3,0,6.3-0.1c2-0.1,3.9-0.1,5.5-0.2c1.6-0.1,3-0.2,3.9-0.4
					c0.5-0.1,0.8-0.2,1.1-0.3C66.6,300.4,66.6,300.3,66.6,300.3z"/>
			</g>
			<g>
				<path class="st0" d="M63.5,295.6c0,0,0,0.1-0.2,0.2c-0.2,0.1-0.5,0.2-0.8,0.3c-0.7,0.2-1.8,0.4-3.2,0.6
					c-1.3,0.1-2.9,0.3-4.5,0.4c-1.7,0.1-3.4,0.1-5.2,0.1c-1.8,0-3.5-0.1-5.2-0.1c-1.7-0.1-3.2-0.2-4.5-0.4c-1.3-0.1-2.4-0.4-3.2-0.6
					c-0.4-0.1-0.7-0.2-0.8-0.3c-0.2-0.1-0.2-0.2-0.2-0.2c0,0,0,0.1,0.2,0.2c0.2,0.1,0.5,0.2,0.8,0.3c0.8,0.2,1.8,0.3,3.2,0.4
					c1.3,0.1,2.9,0.2,4.5,0.2c1.6,0.1,3.4,0.1,5.2,0.1c1.8,0,3.5,0,5.2-0.1c1.6-0.1,3.2-0.1,4.5-0.2c1.3-0.1,2.4-0.2,3.2-0.4
					c0.4-0.1,0.7-0.2,0.8-0.3C63.5,295.7,63.5,295.6,63.5,295.6z"/>
			</g>
			<g>
				<path class="st0" d="M44,289.9c0,0-0.1-1.1-0.1-2.7c0-0.4,0-0.9,0-1.3l0-0.2c0-0.1,0-0.1,0-0.2l0-0.2c0-0.1,0.1-0.1,0.1-0.2
					c0.1-0.2,0.2-0.2,0.3-0.3c0.1-0.1,0.3-0.1,0.5-0.1c1,0,2.1,0,3.2,0c0.5,0,1.1,0,1.6,0c0.3,0,0.5,0,0.8,0c0.1,0,0.3,0.1,0.4,0.2
					c0.1,0.1,0.2,0.3,0.3,0.4c0.1,0.3,0.1,0.6,0,0.8c0,0.2,0,0.5,0,0.7c0,0.5,0,0.9,0,1.3c-0.1,1.6-0.1,2.7-0.1,2.7
					s-0.1-1.1-0.1-2.7c0-0.4,0-0.9,0-1.3c0-0.2,0-0.5,0-0.7c0-0.2,0-0.5-0.1-0.7c0-0.1-0.1-0.2-0.1-0.2c-0.1,0-0.1-0.1-0.2-0.1
					c-0.2,0-0.5,0-0.7,0c-0.5,0-1.1,0-1.6,0c-1.1,0-2.2,0-3.2,0c-0.4,0-0.6,0.4-0.6,0.8c0,0.5,0,0.9,0,1.3
					C44.1,288.8,44,289.9,44,289.9z"/>
			</g>
			<g>
				<path class="st0" d="M51.6,290.3c0,0-0.1-0.9-0.1-2.3c0-0.7-0.1-1.5-0.1-2.3c0-0.2,0.1-0.5,0.2-0.8c0.1-0.1,0.2-0.2,0.3-0.3
					c0.1-0.1,0.3-0.1,0.4-0.1c0.4,0,0.9,0,1.4,0c0.9,0,1.8,0,2.7,0c0.4,0,0.8,0,1.3,0.1c0.5,0.2,0.6,0.7,0.6,1.1
					c-0.1,1.4-0.1,2.3-0.1,2.3s-0.1-0.9-0.1-2.3c0-0.3-0.1-0.7-0.4-0.7c-0.1,0-0.3,0-0.6,0c-0.2,0-0.4,0-0.6,0c-0.9,0-1.8,0-2.7,0
					c-0.5,0-0.9,0-1.4,0c-0.3,0-0.5,0.3-0.6,0.6c0,0.9-0.1,1.7-0.1,2.3C51.7,289.4,51.6,290.3,51.6,290.3z"/>
			</g>
			<g>
				<path class="st0" d="M58.6,289.2c0,0-0.1-0.7-0.1-1.8c0-0.6-0.1-1.2-0.1-1.9c0-0.2,0-0.4,0.1-0.6c0.1-0.2,0.2-0.5,0.6-0.5
					c0.4,0,0.7,0,1.1,0c0.7,0,1.5,0,2.2,0l0.3,0l0.1,0c0.1,0,0.1,0,0.2,0c0.3,0.1,0.3,0.3,0.4,0.5c0.1,0.4,0,0.7,0,0.9
					c-0.1,1.1-0.1,1.8-0.1,1.8s-0.1-0.7-0.1-1.8c0-0.3,0-0.6-0.1-0.8c0-0.1-0.2-0.2-0.2-0.2c0,0-0.1,0-0.1,0l-0.1,0l-0.3,0
					c-0.7,0-1.4,0-2.2,0c-0.4,0-0.7,0-1.1,0c0,0-0.1,0.1-0.2,0.2c-0.1,0.1-0.1,0.3-0.1,0.4c0,0.7-0.1,1.3-0.1,1.9
					C58.7,288.4,58.6,289.2,58.6,289.2z"/>
			</g>
			<g>
				<path class="st0" d="M38.2,285.2c0,0,0-0.2,0-0.4c0-0.1,0.1-0.3,0.3-0.4c0.2-0.1,0.4-0.1,0.7-0.1c0.9-0.1,2.2-0.1,3.4-0.1l0.2,0
					c0.1,0,0,0,0.2,0c0,0,0.1,0,0.1,0c0.3,0.1,0.4,0.3,0.5,0.5c0.1,0.2,0.1,0.4,0.1,0.5c0,0.2,0,0.3,0,0.4c0,0.6-0.1,1.1-0.1,1.6
					c-0.1,0.9-0.1,1.5-0.1,1.5s-0.1-0.6-0.1-1.5c0-0.5-0.1-1-0.1-1.6c0-0.3,0-0.6-0.1-0.8c0-0.1-0.2-0.2-0.1-0.2c0,0-0.1,0-0.1,0
					c0,0-0.1,0-0.1,0l-0.2,0c-1.2,0-2.5-0.1-3.4-0.1c-0.2,0-0.5-0.1-0.6,0c-0.1,0-0.2,0.2-0.3,0.3C38.2,285,38.2,285.2,38.2,285.2z"
					/>
			</g>
			<g>
				<path class="st0" d="M35.6,284.4c0,0,0.4-0.1,1-0.1c0.1,0,0.3,0,0.5,0c0.1,0,0.2,0,0.3,0l0.1,0l0,0l0,0h0l0.1,0l0,0
					c0,0,0.1,0,0.1,0.1c0.1,0.1,0.1,0.1,0.1,0.1c0.1,0.2,0.1,0.4,0.2,0.6c0,0.2,0,0.4,0,0.6c0,0.8,0,1.6-0.1,2.1s-0.1,1-0.1,1
					s-0.1-0.4-0.1-1c-0.1-0.6-0.1-1.4-0.1-2.1c0-0.2,0-0.4,0-0.6c0-0.2,0-0.4-0.1-0.5c0.1,0-0.1,0-0.3,0c-0.2,0-0.3,0-0.5,0
					C36,284.5,35.6,284.4,35.6,284.4z"/>
			</g>
			<g>
				<path class="st0" d="M43.5,274.5c0,0,0.1,0.2,0.1,0.5c0.1,0.3,0.1,0.8,0.1,1.2c0,0.4,0,0.9-0.1,1.2c-0.1,0.3-0.1,0.5-0.1,0.5
					s-0.1-0.2-0.1-0.5c-0.1-0.3-0.1-0.8-0.1-1.2c0-0.4,0.1-0.9,0.1-1.2C43.4,274.7,43.5,274.5,43.5,274.5z"/>
			</g>
			<g>
				<path class="st0" d="M53.9,274.5c0,0,0.1,0.2,0.1,0.5c0.1,0.3,0.1,0.8,0.1,1.2c0,0.4,0,0.9-0.1,1.2c-0.1,0.3-0.1,0.5-0.1,0.5
					s-0.1-0.2-0.1-0.5c-0.1-0.3-0.1-0.8-0.1-1.2c0-0.4,0.1-0.9,0.1-1.2C53.8,274.7,53.9,274.5,53.9,274.5z"/>
			</g>
			<g>
				<path class="st0" d="M50.7,274.5c0,0,0.1,0.2,0.1,0.5c0.1,0.3,0.1,0.8,0.1,1.2c0,0.4,0,0.9-0.1,1.2c-0.1,0.3-0.1,0.5-0.1,0.5
					s-0.1-0.2-0.1-0.5c-0.1-0.3-0.1-0.8-0.1-1.2c0-0.4,0.1-0.9,0.1-1.2C50.7,274.7,50.7,274.5,50.7,274.5z"/>
			</g>
			<g>
				<path class="st0" d="M46.8,274.5c0,0,0.1,0.2,0.1,0.5c0.1,0.3,0.1,0.8,0.1,1.2c0,0.4,0,0.9-0.1,1.2c-0.1,0.3-0.1,0.5-0.1,0.5
					s-0.1-0.2-0.1-0.5c-0.1-0.3-0.1-0.8-0.1-1.2c0-0.4,0.1-0.9,0.1-1.2C46.7,274.7,46.8,274.5,46.8,274.5z"/>
			</g>
			<g>
				<path class="st0" d="M55.9,274.5c0,0,0.1,0.2,0.1,0.5c0.1,0.3,0.1,0.8,0.1,1.2c0,0.4,0,0.9-0.1,1.2c-0.1,0.3-0.1,0.5-0.1,0.5
					s-0.1-0.2-0.1-0.5c-0.1-0.3-0.1-0.8-0.1-1.2c0-0.4,0.1-0.9,0.1-1.2C55.8,274.7,55.9,274.5,55.9,274.5z"/>
			</g>
		</g>
	</g>
</g>
<g>
	<path class="st0" d="M95.9,422.7L95.9,422.7c0-0.2-0.2-0.4-0.4-0.4l-39.8-17.8c-0.9-0.5-1-0.5-2-0.3l-45,10
		c-0.7,0.2-1.2,0.5-1.4,0.7l-0.1,0c-1.1,0.4-0.9,4.2-0.6,4.6l33,30.1c0.3,0.3,0.9,0.9,2,0.3l52.8-22.3
		C95.7,427.1,96.2,422.8,95.9,422.7z M93.2,423.3L43,441.6c-1,0.6-1.6,0.1-1.9-0.2L9.8,415.4c-0.3-0.3,0.2-0.6,1.3-0.9l42.4-9.6
		c1-0.2,1.1-0.2,1.9,0.2l38.1,17.2C93.8,422.5,94.3,423,93.2,423.3z"/>
	<path class="st1" d="M93.4,422.4c0.3,0.1,0.8,0.6-0.3,0.9l-50.2,18.2c-1,0.6-1.6,0.1-1.9-0.2L9.7,415.4c-0.3-0.3,0.2-0.6,1.3-0.9
		l42.4-9.6c1-0.2,1.1-0.2,1.9,0.2L93.4,422.4z"/>
	<polygon class="st11" points="18.9,427.6 18.9,429.5 21.8,431.9 22.1,430.3 	"/>
	<polyline class="st11" points="21.8,431.9 23,431.6 23.3,430.1 20.2,427.4 18.9,427.6 	"/>
	<g>
		<path class="st12" d="M95.7,422.4c0.1,0.1,0.3,0.2,0.3,0.3c0.1,0.1,0.1,0.3-0.1,0.4c-0.2,0.2-0.5,0.3-0.8,0.4l-1.7,0.7l-3.4,1.3
			l-6.7,2.7l-13.5,5.3l-13.5,5.2c-4.5,1.7-9,3.5-13.6,5.1l0.1,0c-0.2,0.2-0.5,0.3-0.9,0.3c-0.3,0.1-0.7,0-1-0.1
			c-0.3-0.1-0.5-0.4-0.7-0.5l-0.5-0.5l-2.3-1.9l-4.5-3.8c-3-2.5-6-5.1-9-7.7l-9-7.7l-4.5-3.9l-2.2-1.9l-0.6-0.5
			c-0.1-0.1-0.2-0.1-0.3-0.3c-0.1-0.1,0-0.3,0.1-0.4c0.4-0.3,0.9-0.5,1.4-0.6c-0.5,0.2-1,0.3-1.3,0.7c-0.1,0.1-0.1,0.2,0,0.3
			c0.1,0.1,0.2,0.2,0.3,0.2l0.6,0.5l2.3,1.9l4.6,3.7l9.1,7.5c3.1,2.5,6.1,5,9.1,7.5l4.5,3.8l2.3,1.9l0.6,0.5
			c0.2,0.2,0.3,0.3,0.5,0.3c0.3,0.1,0.6,0.1,0.9-0.2l0,0l0,0c4.5-1.7,9-3.4,13.6-5.1l13.6-5.1l13.6-5l6.8-2.5l3.4-1.2l1.7-0.6
			c0.3-0.1,0.6-0.2,0.8-0.4C96.2,422.9,95.9,422.5,95.7,422.4z"/>
	</g>
	<g>
		<defs>
			<path id="SVGID_13_" d="M93.4,422.4c0.3,0.1,0.8,0.6-0.3,0.9l-50.2,18.2c-1,0.6-1.6,0.1-1.9-0.2L9.7,415.4
				c-0.3-0.3,0.2-0.6,1.3-0.9l42.4-9.6c1-0.2,1.1-0.2,1.9,0.2L93.4,422.4z"/>
		</defs>
		<clipPath id="SVGID_14_">
			<use xlink:href="#SVGID_13_"  style="overflow:visible;"/>
		</clipPath>
		<g class="st13">
			<line class="st14" x1="5.9" y1="417" x2="65.9" y2="464.7"/>
			<line class="st14" x1="37.6" y1="377.1" x2="97.6" y2="424.7"/>
			<line class="st14" x1="29.4" y1="388.1" x2="95.8" y2="426.3"/>
			<line class="st14" x1="27.7" y1="390.4" x2="94.2" y2="428.3"/>
			<line class="st14" x1="14.2" y1="406.5" x2="74.2" y2="454.2"/>
			<line class="st14" x1="12.6" y1="408.6" x2="72.5" y2="456.3"/>
			<line class="st14" x1="10.9" y1="410.7" x2="70.9" y2="458.4"/>
			<line class="st14" x1="9.2" y1="412.8" x2="69.2" y2="460.5"/>
			<line class="st14" x1="7.6" y1="414.9" x2="67.5" y2="462.6"/>
			<line class="st14" x1="39.3" y1="375" x2="99.3" y2="422.6"/>
			<line class="st14" x1="26" y1="392.4" x2="92.5" y2="430.4"/>
			<line class="st14" x1="25.1" y1="393.2" x2="90.1" y2="433.8"/>
			<line class="st14" x1="24" y1="394.5" x2="87.9" y2="436.8"/>
			<line class="st14" x1="22.8" y1="395.8" x2="85.7" y2="439.6"/>
			<line class="st14" x1="21.9" y1="396.9" x2="83.2" y2="442.8"/>
			<line class="st14" x1="20.4" y1="398.8" x2="81.4" y2="445.1"/>
			<line class="st14" x1="19" y1="400.6" x2="79.5" y2="447.5"/>
			<line class="st14" x1="17.6" y1="402.3" x2="77.5" y2="450"/>
			<line class="st14" x1="15.9" y1="404.4" x2="75.9" y2="452.1"/>
		</g>
	</g>
</g>
</svg>
