<?xml version="1.0" encoding="utf-8"?>
<!-- Generator: Adobe Illustrator 19.0.0, SVG Export Plug-In . SVG Version: 6.00 Build 0)  -->
<svg version="1.1" id="Capa_1" xmlns="http://www.w3.org/2000/svg" xmlns:xlink="http://www.w3.org/1999/xlink" x="0px" y="0px"
	 viewBox="-268 242.6 74.7 308.4" style="enable-background:new -268 242.6 74.7 308.4;" xml:space="preserve">
<style type="text/css">
	.st0{fill:#C1151D;}
</style>
<g>
	<g>
		<path class="st0" d="M-236.9,268.3c0,0.8-0.6,1.4-1.4,1.4h-8.5c-0.8,0-1.4-0.6-1.4-1.4l0,0c0-0.8,0.6-1.4,1.4-1.4h8.5
			C-237.5,266.9-236.9,267.5-236.9,268.3L-236.9,268.3z"/>
		<path class="st0" d="M-236.9,302.2c0,0.8-0.6,1.4-1.4,1.4h-8.5c-0.8,0-1.4-0.6-1.4-1.4l0,0c0-0.8,0.6-1.4,1.4-1.4h8.5
			C-237.5,300.8-236.9,301.4-236.9,302.2L-236.9,302.2z"/>
	</g>
</g>
<g>
	<path class="st0" d="M-247.7,282.7c-7.8-4.8-10.3-14.9-5.6-22.7c4.8-7.8,14.9-10.5,22.7-5.7c2.6,1.6,4.7,4.2,6,6.2h5.8
		c-1.7-4-4.8-8-9.1-10.6c-10.3-6.3-23.7-2.9-30,7.4c-5.4,8.9-3.7,20.1,3.4,27l-11.6,19.1c-0.1,0.2-1.8,3.1,2.4,5.2
		c3.9,2,5.8,0,5.9-0.2l11.8-19.2c0.6,0.2,1.1,0.4,2.1,0.5v-5.4C-244.9,283.9-246.5,283.4-247.7,282.7z"/>
	<path class="st0" d="M-232.9,284v5.6c0.4-0.1,1-0.3,1-0.4v-5.7C-231.9,283.7-232.5,283.9-232.9,284z"/>
	<path class="st0" d="M-241.1,260.4c-1.7,0-2.9,1.6-2.9,3.1v3.9h6c1.4,0,2.5,1.1,2.5,2.5c0,1.4-1.1,2.5-2.5,2.5h-5.9v11.9
		c3,1.1,7,1,11-0.3v-23.6H-241.1z"/>
	<path class="st0" d="M-243.9,289.8v11.6h5.9c1.4,0,2.5,1.1,2.5,2.5c0,1.4-1.1,2.5-2.5,2.5h-5.9v4.9c0,1.5,1.2,3.1,2.9,3.1h8.1
		v-24.8C-236.9,290.5-240.9,290.6-243.9,289.8z"/>
	<path class="st0" d="M-231.9,283.5c3-1.3,5.3-3.6,7-6.5c3.2-5.2,3.1-11.6,0.4-16.6h-7.4V283.5z"/>
	<path class="st0" d="M-204.4,260.4h-14.4c2.4,6,1.9,13.3-1.7,19.3c-2.7,4.5-6.5,7.8-11.5,9.4v25.3h27.6c1.7,0,3.4-1.6,3.4-3.1
		v-47.8C-200.9,262-202.6,260.4-204.4,260.4z"/>
</g>
<path class="st0" d="M-206.5,414.2l1.9-0.9l-8.9-18.7l-0.3-0.7l-1.4-2.9l5.3-2.5c0,0-0.4-1.2-1.5-0.9c-0.8,0.2-3.6,0.8-4.9,1.1
	l-0.1-0.1l-0.7,0.3l-1.1,0.5l-0.1,0.1l-4.4-9.3l0.2-0.1l0.1,0.3l1.1-0.5c0,0,3.7-2.8,4.6-3.5c0.9-0.7,0.2-1.7,0.2-1.7l-5.3,2.5
	l-1-2.1l-1.9,0.9l-0.2-0.5l-5.4,2.6l0.1,0.3l-1.7,0.8c0,0-8.1,6.1-10.1,7.7c-2,1.5-0.6,3.7-0.6,3.7l12-5.7l-0.2-0.4l2.8-1.3l6.6,14
	l-2.8,1.3l-4,1.7h0.3c1.1,0,2.2,0.9,2.2,1.6v2c2.6-0.6,4.7-1.1,4.7-1.1l7.1,15.1l1.7-0.8l9.9,20.9l5.4-2.6L-206.5,414.2z"/>
<g>
	<g>
		<g>
			<path class="st0" d="M-251.2,398.6c1.5-0.1,14,0,17.8,0v-3.8c0-1.3-0.9-2.4-2.1-2.4h-22.3c-1.1,0-2.1,1.1-2.1,2.4v31.9
				c0,1.3,0.9,2.4,2.1,2.4h3.4c0,0,0-25.8,0-27.3S-252.9,398.7-251.2,398.6z"/>
		</g>
		<path class="st0" d="M-226.3,428.2h-10.3v8.8c0,0,2.6,0.5,5.6-2.2C-228,432.2-226.3,428.2-226.3,428.2z"/>
		<path class="st0" d="M-226.1,428"/>
		<path class="st0" d="M-228.1,401h-22.4c-1.1,0-3,0.5-3,1.8v31.9c0,1.3,1.9,3.3,3,3.3h12v-10h12v-25.8
			C-226.5,401.5-227,401-228.1,401z M-239.5,411h-8v-1h8V411z M-242.9,408.6c-2.8,0-5.1-1.1-5.1-2.4s2.3-2.4,5.1-2.4
			c2.8,0,5.1,1.1,5.1,2.4S-240.1,408.6-242.9,408.6z"/>
	</g>
</g>
<g>
	<g>
		<path class="st0" d="M-217.7,500.9h-43.7c-0.9,0-1.6,0.7-1.6,1.6v27c0,0.9,0.7,1.6,1.6,1.6h10.7c0,0,0.3-1,1.6-1.8
			c0.8-0.4,13.1-8.2,14.6-8.5c1.5-0.3,4.3,3,4.3,3l2.4,3.1c0,0,0.6,0.6,1.3,0.3c0.3-0.1,4.4-2.8,6.5-4.6c2.3-1.9,4-3.9,4-3.9v-1.1
			v-15.1C-216.1,501.6-216.8,500.9-217.7,500.9z M-220.8,507.1l-18.2,11.7c-0.6,0.4-1.3,0.2-1.9-0.3l-17.8-11.5
			c-0.7-0.4-0.8-1.5-0.3-2.3s1.5-1.1,2.2-0.7l17,11l17-10.9c0.7-0.4,1.7-0.1,2.2,0.7C-220,505.6-220.1,506.6-220.8,507.1z"/>
	</g>
	<path class="st0" d="M-235.7,525.5c0.4-0.2,0.7-0.3,1.1-0.3c0.6,0,1.4,0.6,2.4,1.7s2,2.3,3,3.4c1,1.1,1.7,1.7,2.3,1.7
		c0.2,0,0.5-0.1,0.9-0.2c0.3-0.1,0.6-0.2,0.8-0.3s0.5-0.3,0.9-0.5c0.4-0.2,0.6-0.4,0.7-0.4c3.4-1.9,6.4-4.1,8.8-6.6
		c2.5-2.5,4.7-5.4,6.6-8.8c0.1-0.1,0.2-0.3,0.4-0.7c0.2-0.4,0.4-0.7,0.5-0.9c0.1-0.2,0.2-0.5,0.3-0.8s0.2-0.6,0.2-0.9
		c0-0.4-0.4-1-1.1-1.7c-0.7-0.7-1.5-1.4-2.3-2s-1.6-1.3-2.3-2c-0.7-0.7-1.1-1.4-1.1-1.9c0-0.3,0.1-0.7,0.3-1.1
		c0.2-0.4,3.1-5.3,3.5-6.1c0.5-0.8,0.9-1.6,1.4-2.5s0.9-1.5,1.3-2.1c0.4-0.6,0.7-0.9,0.9-0.9c0.2-0.1,0.5-0.1,0.8-0.1
		c1.7,0,3.4,0.4,5.2,1.1c1.6,0.7,3,2.4,4.2,4.9s1.8,4.8,1.8,6.8c0,0.6,0,1.1-0.1,1.8c-0.1,0.6-0.2,1.1-0.3,1.6
		c-0.1,0.4-0.2,1-0.5,1.7c-0.2,0.7-0.4,1.2-0.5,1.5c-0.1,0.3-0.3,0.9-0.6,1.7c-0.3,0.8-0.5,1.3-0.6,1.6c-2.1,5.7-5.8,11.2-11.2,16.6
		s-11,9.2-16.6,11.2c-0.2,0.1-0.7,0.3-1.6,0.6c-0.8,0.3-1.4,0.5-1.7,0.6c-0.3,0.1-0.8,0.3-1.5,0.5c-0.7,0.2-1.3,0.4-1.7,0.5
		c-0.4,0.1-1,0.2-1.6,0.3c-0.6,0.1-1.2,0.1-1.8,0.1c-2,0-4.2-0.6-6.8-1.8c-2.5-1.2-4.2-2.6-4.9-4.2l0,0c-0.8-1.8-1.1-3.6-1.1-5.2
		c0-0.4,0-0.7,0.1-0.8c0.1-0.3,0.8-0.8,2-1.5c1.2-0.7,2.8-1.6,4.6-2.6"/>
</g>
</svg>
