<?xml version="1.0" encoding="utf-8"?>
<!-- Generator: Adobe Illustrator 19.0.0, SVG Export Plug-In . SVG Version: 6.00 Build 0)  -->
<svg version="1.1" id="Capa_1" xmlns="http://www.w3.org/2000/svg" xmlns:xlink="http://www.w3.org/1999/xlink" x="0px" y="0px"
	 viewBox="0 0 202.5 84" style="enable-background:new 0 0 202.5 84;" xml:space="preserve">
<style type="text/css">
	.st0{fill:#C10D19;stroke:#FFFFFF;stroke-width:8;stroke-miterlimit:10;}
	.st1{fill:#C10D19;stroke:#222220;stroke-width:4;stroke-miterlimit:10;}
	.st2{fill-rule:evenodd;clip-rule:evenodd;fill:#FFFFFF;}
	.st3{fill-rule:evenodd;clip-rule:evenodd;fill:#222220;}
	.st4{fill:#C10D19;}
</style>
<g>
	<path class="st0" d="M193.4,41.6c0,18.6-40.8,33.7-91.2,33.7C51.8,75.4,11,60.3,11,41.6C11,23,51.8,7.9,102.2,7.9
		C152.6,7.9,193.4,23,193.4,41.6"/>
	<g>
		<path class="st1" d="M193.3,41.6c0,18.6-40.8,33.7-91.2,33.7c-50.4,0-91.2-15.1-91.2-33.7C10.8,23,51.7,7.9,102,7.9
			C152.4,7.9,193.3,23,193.3,41.6"/>
		<path class="st2" d="M103.1,51.2h-3.9V39.9l-2.3,11.4h-3l-2.6-11.4v11.4h-3.5V31h5.7l2,10.5L97.1,31h5.9V51.2z M76.3,31h4.4v17
			c0,0.4,0.2,0.6,0.7,0.6c0.5,0,0.7-0.2,0.7-0.6V31h4.4v16.8c0,1.2-0.5,2.1-1.5,2.7c-1,0.6-2.2,1-3.7,1c-1.4,0-2.6-0.3-3.6-0.9
			c-1-0.6-1.5-1.5-1.5-2.8V31z M75.5,51.2H71V31h4.4V51.2z M70.1,51.2h-4V39.9l-2.3,11.4h-3.1l-2.6-11.4v11.4h-3.5V31h5.7l2,10.5
			L64.2,31h5.9V51.2z M54,51.2h-8.7V31h8.6v2.6h-4.2v5.5h3.8v2.5h-3.8v7.1H54V51.2z M39.6,38v-3.3c0-0.7-0.5-1.1-1.4-1.1v5.5
			C39.2,39.1,39.6,38.7,39.6,38z M44.7,51.3h-4.4c-0.5-0.6-0.7-2.2-0.7-4.9v0l0-1.2c0-1.7,0-2.6,0-2.6c0-0.7-0.5-1-1.4-1v9.7h-4.4
			V31h5.5c1.2,0,2.3,0.3,3.3,0.9c0.9,0.6,1.4,1.5,1.4,2.7V37c0,1.6-0.9,2.6-2.7,3.2c1.8,0.4,2.8,1.5,2.8,3.3l-0.1,2.2
			C43.9,49,44.2,50.8,44.7,51.3z M28.7,39.8v-4.9c0-0.7-0.5-1.1-1.5-1.1v7C28.2,40.9,28.7,40.5,28.7,39.8z M27.2,43.8v7.5h-4.3V31
			h4.7c1.8,0,3.2,0.2,4.1,0.7c0.9,0.5,1.3,1.4,1.3,2.9v5.6c0,1.3-0.4,2.3-1.1,2.8C31.2,43.6,29.6,43.8,27.2,43.8z"/>
		<path class="st2" d="M132.6,29.7h9.4c0,0,0.4,0,0.5,0.1c0,0,0.1,0,0.4-0.1c0.3,0,8.6,0,8.6,0s0.4,0,0.4,0.1c0,0,0.1-0.1,0.5-0.1
			c0.4,0,6,0,6,0s3.3,0.1,4.7,2.4c0,0,1.3-2.6,5.7-2.6c4.4,0,6,2.2,6,4.5v4c0,0-0.1,1.3-1.3,1.3h-1.4c0,0,3.1,2.6,3.1,5V48
			c0,0-0.1,4.7-6.1,4.7c0,0-2.7,0.3-4.6-1.1c0,0-0.2,0.9-1.6,0.9h-4.2c0,0-0.8-0.1-0.9-0.5c0,0-0.5,0.4-1,0.4h-4.6l-0.2-0.1
			c0,0-0.2,0.1-0.3,0.1h-8.8c0,0-1.3-0.1-1.3-1.5V35h-0.6v16.2c0,0,0.2,1.4-1.3,1.4H135c0,0-1.3-0.1-1.3-1.4V35.1h-1.3
			c0,0-1.2,0-1.2-1.4v-2.8C131.3,30.8,131.3,29.7,132.6,29.7"/>
	</g>
	<path class="st2" d="M109.1,29.7h8.2c0,0,0.4,0,0.4,0.1c0,0,0.1-0.1,0.4-0.1h4.4c0,0,0.5,0,0.5,0.1c0,0,0.2-0.1,0.6-0.1h4.4
		c0,0,1.2,0.1,1.2,1.3v16.3h2.5c0,0,1.3,0.2,1.3,1.3v2.8c0,0-0.2,1.2-1.3,1.2h-8.3c0,0-0.5-0.1-0.5-0.1c0,0,0,0.1-0.5,0.1h-4.5
		c0,0-1.2-0.1-1.2-1.5v-8.2h-1.8v8.5c0,0,0,1.3-1.3,1.3h-4.4c0,0-1.4,0-1.4-1.4V31C107.8,31,107.7,29.7,109.1,29.7"/>
	<path class="st3" d="M163.6,43.2h4v4.6c0,0.5,0.3,0.7,0.8,0.7c0.5,0,0.8-0.2,0.8-0.7v-2.4c0-0.7-0.5-1.6-1.5-2.6
		c-1.9-1.8-3.1-3.1-3.5-3.7c-0.5-0.6-0.7-1.3-0.7-2.1v-2.3c0-2.6,1.7-3.9,5.1-3.9c3.1,0,4.6,1.2,4.6,3.6v3.5h-4v-3.7
		c0-0.4-0.2-0.6-0.7-0.6c-0.5,0-0.8,0.4-0.8,1.2l0.1,1.3c0,0.8,0.5,1.6,1.5,2.6c1.8,1.8,3,3,3.5,3.7c0.5,0.7,0.7,1.5,0.7,2.4v2.6
		c0,2.7-1.7,4-5.1,4c-3.3,0-4.9-1.2-4.9-3.7V43.2z M157.9,38v-3.3c0-0.7-0.5-1.1-1.4-1.1v5.5C157.4,39.1,157.9,38.7,157.9,38z
		 M163,51.3h-4.4c-0.5-0.6-0.7-2.2-0.7-4.9v0l0-1.2c0-1.7,0-2.5,0-2.6c0-0.7-0.5-1-1.4-1v9.7h-4.4V31h5.5c1.2,0,2.3,0.3,3.3,0.9
		c0.9,0.6,1.4,1.5,1.4,2.7V37c0,1.6-0.9,2.6-2.7,3.2c1.8,0.4,2.8,1.5,2.8,3.3l-0.1,2.2C162.1,49,162.4,50.9,163,51.3z M151.3,51.3
		h-8.7V31h8.6v2.6h-4.2v5.5h3.8v2.5h-3.8v7.1h4.2V51.3z M141.8,33.7h-2.5v17.6h-4.4V33.7h-2.5V31h9.4V33.7z M131.9,51.3h-8.3V31h4.4
		v17.6h3.9V51.3z M122.6,51.3h-4.4V31h4.4V51.3z M117.6,33.6h-3.9v5.5h3.5v2.5h-3.5v9.7h-4.4V31h8.3V33.6z"/>
	<rect x="114.8" y="34.7" class="st4" width="1.8" height="2.9"/>
</g>
</svg>
