<?xml version="1.0" encoding="utf-8"?>
<!-- Generator: Adobe Illustrator 19.0.0, SVG Export Plug-In . SVG Version: 6.00 Build 0)  -->
<svg version="1.1" id="Capa_1" xmlns="http://www.w3.org/2000/svg" xmlns:xlink="http://www.w3.org/1999/xlink" x="0px" y="0px"
	 viewBox="0 0 74.7 308.4" style="enable-background:new 0 0 74.7 308.4;" xml:space="preserve">
<style type="text/css">
	.st0{fill:#1B2736;}
</style>
<g>
	<g>
		<path class="st0" d="M31.1,25.7c0,0.8-0.6,1.4-1.4,1.4h-8.5c-0.8,0-1.4-0.6-1.4-1.4l0,0c0-0.8,0.6-1.4,1.4-1.4h8.5
			C30.5,24.3,31.1,24.9,31.1,25.7L31.1,25.7z"/>
		<path class="st0" d="M31.1,59.6c0,0.8-0.6,1.4-1.4,1.4h-8.5c-0.8,0-1.4-0.6-1.4-1.4l0,0c0-0.8,0.6-1.4,1.4-1.4h8.5
			C30.5,58.2,31.1,58.8,31.1,59.6L31.1,59.6z"/>
	</g>
</g>
<g>
	<path class="st0" d="M20.3,40.1c-7.8-4.8-10.3-14.9-5.6-22.7c4.8-7.8,14.9-10.5,22.7-5.7c2.6,1.6,4.7,4.2,6,6.2h5.8
		c-1.7-4-4.8-8-9.1-10.6c-10.3-6.3-23.7-2.9-30,7.4c-5.4,8.9-3.7,20.1,3.4,27L1.9,60.8C1.8,61,0.1,63.9,4.3,66c3.9,2,5.8,0,5.9-0.2
		L22,46.6c0.6,0.2,1.1,0.4,2.1,0.5v-5.4C23.1,41.3,21.5,40.8,20.3,40.1z"/>
	<path class="st0" d="M35.1,41.4V47c0.4-0.1,1-0.3,1-0.4v-5.7C36.1,41.1,35.5,41.3,35.1,41.4z"/>
	<path class="st0" d="M26.9,17.8c-1.7,0-2.9,1.6-2.9,3.1v3.9H30c1.4,0,2.5,1.1,2.5,2.5c0,1.4-1.1,2.5-2.5,2.5h-5.9v11.9
		c3,1.1,7,1,11-0.3V17.8H26.9z"/>
	<path class="st0" d="M24.1,47.2v11.6H30c1.4,0,2.5,1.1,2.5,2.5c0,1.4-1.1,2.5-2.5,2.5h-5.9v4.9c0,1.5,1.2,3.1,2.9,3.1h8.1V47
		C31.1,47.9,27.1,48,24.1,47.2z"/>
	<path class="st0" d="M36.1,40.9c3-1.3,5.3-3.6,7-6.5c3.2-5.2,3.1-11.6,0.4-16.6h-7.4V40.9z"/>
	<path class="st0" d="M63.6,17.8H49.2c2.4,6,1.9,13.3-1.7,19.3c-2.7,4.5-6.5,7.8-11.5,9.4v25.3h27.6c1.7,0,3.4-1.6,3.4-3.1V20.9
		C67.1,19.4,65.4,17.8,63.6,17.8z"/>
</g>
<path class="st0" d="M61.5,171.6l1.9-0.9L54.5,152l-0.3-0.7l-1.4-2.9l5.3-2.5c0,0-0.4-1.2-1.5-0.9c-0.8,0.2-3.6,0.8-4.9,1.1
	l-0.1-0.1l-0.7,0.3l-1.1,0.5l-0.1,0.1l-4.4-9.3l0.2-0.1l0.1,0.3l1.1-0.5c0,0,3.7-2.8,4.6-3.5c0.9-0.7,0.2-1.7,0.2-1.7l-5.3,2.5
	l-1-2.1l-1.9,0.9l-0.2-0.5l-5.4,2.6l0.1,0.3l-1.7,0.8c0,0-8.1,6.1-10.1,7.7c-2,1.5-0.6,3.7-0.6,3.7l12-5.7l-0.2-0.4l2.8-1.3l6.6,14
	l-2.8,1.3l-4,1.7h0.3c1.1,0,2.2,0.9,2.2,1.6v2c2.6-0.6,4.7-1.1,4.7-1.1l7.1,15.1l1.7-0.8l9.9,20.9l5.4-2.6L61.5,171.6z"/>
<g>
	<g>
		<g>
			<path class="st0" d="M16.8,156c1.5-0.1,14,0,17.8,0v-3.8c0-1.3-0.9-2.4-2.1-2.4H10.2c-1.1,0-2.1,1.1-2.1,2.4v31.9
				c0,1.3,0.9,2.4,2.1,2.4h3.4c0,0,0-25.8,0-27.3S15.1,156.1,16.8,156z"/>
		</g>
		<path class="st0" d="M41.7,185.6H31.4v8.8c0,0,2.6,0.5,5.6-2.2C40,189.6,41.7,185.6,41.7,185.6z"/>
		<path class="st0" d="M41.9,185.4"/>
		<path class="st0" d="M39.9,158.4H17.5c-1.1,0-3,0.5-3,1.8v31.9c0,1.3,1.9,3.3,3,3.3h12v-10h12v-25.8
			C41.5,158.9,41,158.4,39.9,158.4z M28.5,168.4h-8v-1h8V168.4z M25.1,166c-2.8,0-5.1-1.1-5.1-2.4c0-1.3,2.3-2.4,5.1-2.4
			c2.8,0,5.1,1.1,5.1,2.4C30.2,164.9,27.9,166,25.1,166z"/>
	</g>
</g>
<g>
	<g>
		<path class="st0" d="M50.3,258.3H6.6c-0.9,0-1.6,0.7-1.6,1.6v27c0,0.9,0.7,1.6,1.6,1.6h10.7c0,0,0.3-1,1.6-1.8
			c0.8-0.4,13.1-8.2,14.6-8.5c1.5-0.3,4.3,3,4.3,3l2.4,3.1c0,0,0.6,0.6,1.3,0.3c0.3-0.1,4.4-2.8,6.5-4.6c2.3-1.9,4-3.9,4-3.9V275
			v-15.1C51.9,259,51.2,258.3,50.3,258.3z M47.2,264.5L29,276.2c-0.6,0.4-1.3,0.2-1.9-0.3L9.3,264.4c-0.7-0.4-0.8-1.5-0.3-2.3
			c0.5-0.8,1.5-1.1,2.2-0.7l17,11l17-10.9c0.7-0.4,1.7-0.1,2.2,0.7C48,263,47.9,264,47.2,264.5z"/>
	</g>
	<path class="st0" d="M32.3,282.9c0.4-0.2,0.7-0.3,1.1-0.3c0.6,0,1.4,0.6,2.4,1.7c1,1.1,2,2.3,3,3.4c1,1.1,1.7,1.7,2.3,1.7
		c0.2,0,0.5-0.1,0.9-0.2c0.3-0.1,0.6-0.2,0.8-0.3c0.2-0.1,0.5-0.3,0.9-0.5c0.4-0.2,0.6-0.4,0.7-0.4c3.4-1.9,6.4-4.1,8.8-6.6
		c2.5-2.5,4.7-5.4,6.6-8.8c0.1-0.1,0.2-0.3,0.4-0.7c0.2-0.4,0.4-0.7,0.5-0.9c0.1-0.2,0.2-0.5,0.3-0.8c0.1-0.3,0.2-0.6,0.2-0.9
		c0-0.4-0.4-1-1.1-1.7c-0.7-0.7-1.5-1.4-2.3-2c-0.8-0.6-1.6-1.3-2.3-2c-0.7-0.7-1.1-1.4-1.1-1.9c0-0.3,0.1-0.7,0.3-1.1
		c0.2-0.4,3.1-5.3,3.5-6.1c0.5-0.8,0.9-1.6,1.4-2.5c0.5-0.9,0.9-1.5,1.3-2.1c0.4-0.6,0.7-0.9,0.9-0.9c0.2-0.1,0.5-0.1,0.8-0.1
		c1.7,0,3.4,0.4,5.2,1.1c1.6,0.7,3,2.4,4.2,4.9c1.2,2.5,1.8,4.8,1.8,6.8c0,0.6,0,1.1-0.1,1.8c-0.1,0.6-0.2,1.1-0.3,1.6
		c-0.1,0.4-0.2,1-0.5,1.7c-0.2,0.7-0.4,1.2-0.5,1.5c-0.1,0.3-0.3,0.9-0.6,1.7c-0.3,0.8-0.5,1.3-0.6,1.6c-2.1,5.7-5.8,11.2-11.2,16.6
		c-5.4,5.4-11,9.2-16.6,11.2c-0.2,0.1-0.7,0.3-1.6,0.6c-0.8,0.3-1.4,0.5-1.7,0.6c-0.3,0.1-0.8,0.3-1.5,0.5c-0.7,0.2-1.3,0.4-1.7,0.5
		c-0.4,0.1-1,0.2-1.6,0.3c-0.6,0.1-1.2,0.1-1.8,0.1c-2,0-4.2-0.6-6.8-1.8c-2.5-1.2-4.2-2.6-4.9-4.2l0,0c-0.8-1.8-1.1-3.6-1.1-5.2
		c0-0.4,0-0.7,0.1-0.8c0.1-0.3,0.8-0.8,2-1.5c1.2-0.7,2.8-1.6,4.6-2.6"/>
</g>
</svg>
